<svg xmlns="http://www.w3.org/2000/svg" viewBox="0 0 1920 1440" width="1920" height="1440" preserveAspectRatio="xMidYMid meet" style="width: 100%; height: 100%; transform: translate3d(0px, 0px, 0px);"><defs><clipPath id="__lottie_element_11"><rect width="1920" height="1440" x="0" y="0"></rect></clipPath><radialGradient id="__lottie_element_19" spreadMethod="pad" gradientUnits="userSpaceOnUse" cx="0" cy="0" r="619.06298828125" fx="0" fy="0"><stop offset="0%" stop-color="rgb(252,120,199)" stop-opacity="1"></stop><stop offset="50%" stop-color="rgb(252,120,199)" stop-opacity="0.5"></stop><stop offset="100%" stop-color="rgb(252,120,199)" stop-opacity="0"></stop></radialGradient><radialGradient id="__lottie_element_23" spreadMethod="pad" gradientUnits="userSpaceOnUse" cx="0" cy="0" r="585.5661567041523" fx="0" fy="0"><stop offset="0%" stop-color="rgb(251,218,218)" stop-opacity="1"></stop><stop offset="50%" stop-color="rgb(251,205,222)" stop-opacity="0.5"></stop><stop offset="100%" stop-color="rgb(250,191,226)" stop-opacity="0"></stop></radialGradient><radialGradient id="__lottie_element_27" spreadMethod="pad" gradientUnits="userSpaceOnUse" cx="0" cy="0" r="619.06298828125" fx="0" fy="0"><stop offset="0%" stop-color="rgb(228,218,251)" stop-opacity="1"></stop><stop offset="50%" stop-color="rgb(211,213,251)" stop-opacity="0.5"></stop><stop offset="100%" stop-color="rgb(194,209,251)" stop-opacity="0"></stop></radialGradient><radialGradient id="__lottie_element_31" spreadMethod="pad" gradientUnits="userSpaceOnUse" cx="0" cy="0" r="619.06298828125" fx="0" fy="0"><stop offset="0%" stop-color="rgb(228,218,251)" stop-opacity="1"></stop><stop offset="50%" stop-color="rgb(211,213,251)" stop-opacity="0.5"></stop><stop offset="100%" stop-color="rgb(194,209,251)" stop-opacity="0"></stop></radialGradient></defs><g clip-path="url(#__lottie_element_11)"><g transform="matrix(1,0,0,1,960,720)" opacity="1" style="display: block;"><g opacity="1" transform="matrix(1,0,0,1,0,0)"><path fill="rgb(251,247,253)" fill-opacity="1" d=" M960,-720 C960,-720 960,720 960,720 C960,720 -960,720 -960,720 C-960,720 -960,-720 -960,-720 C-960,-720 960,-720 960,-720z"></path></g></g><g transform="matrix(2.380000114440918,0,0,2.380000114440918,958.9769897460938,2936)" opacity="0.2" style="display: block;"><g opacity="1" transform="matrix(1,0,0,1,-478.97698974609375,17.023000717163086)"><path fill="url(#__lottie_element_19)" fill-opacity="1" d=" M0,-629.0234985351562 C347.1580810546875,-629.0234985351562 629.0234985351562,-347.1580810546875 629.0234985351562,0 C629.0234985351562,347.1580810546875 347.1580810546875,629.0234985351562 0,629.0234985351562 C-347.1580810546875,629.0234985351562 -629.0234985351562,347.1580810546875 -629.0234985351562,0 C-629.0234985351562,-347.1580810546875 -347.1580810546875,-629.0234985351562 0,-629.0234985351562z"></path></g></g><g transform="matrix(1.4651167392730713,0,0,1.4651167392730713,392.7406005859375,657.2096557617188)" opacity="0.7000000000000001" style="display: block;"><g opacity="1" transform="matrix(1,0,0,1,-478.97698974609375,17.023000717163086)"><path fill="url(#__lottie_element_23)" fill-opacity="1" d=" M0,-629.0234985351562 C347.1580810546875,-629.0234985351562 629.0234985351562,-347.1580810546875 629.0234985351562,0 C629.0234985351562,347.1580810546875 347.1580810546875,629.0234985351562 0,629.0234985351562 C-347.1580810546875,629.0234985351562 -629.0234985351562,347.1580810546875 -629.0234985351562,0 C-629.0234985351562,-347.1580810546875 -347.1580810546875,-629.0234985351562 0,-629.0234985351562z"></path></g></g><g transform="matrix(1.6738821268081665,0,0,1.6738821268081665,2733.09765625,1097.456787109375)" opacity="0.9" style="display: block;"><g opacity="1" transform="matrix(1,0,0,1,-478.97698974609375,17.023000717163086)"><path fill="url(#__lottie_element_27)" fill-opacity="1" d=" M0,-629.0234985351562 C347.1580810546875,-629.0234985351562 629.0234985351562,-347.1580810546875 629.0234985351562,0 C629.0234985351562,347.1580810546875 347.1580810546875,629.0234985351562 0,629.0234985351562 C-347.1580810546875,629.0234985351562 -629.0234985351562,347.1580810546875 -629.0234985351562,0 C-629.0234985351562,-347.1580810546875 -347.1580810546875,-629.0234985351562 0,-629.0234985351562z"></path></g></g><g transform="matrix(1.7813348770141602,0,0,1.7813348770141602,2571.234619140625,-487.5615234375)" opacity="0.8" style="display: block;"><g opacity="1" transform="matrix(1,0,0,1,-478.97698974609375,17.023000717163086)"><path fill="url(#__lottie_element_31)" fill-opacity="1" d=" M0,-629.0234985351562 C347.1580810546875,-629.0234985351562 629.0234985351562,-347.1580810546875 629.0234985351562,0 C629.0234985351562,347.1580810546875 347.1580810546875,629.0234985351562 0,629.0234985351562 C-347.1580810546875,629.0234985351562 -629.0234985351562,347.1580810546875 -629.0234985351562,0 C-629.0234985351562,-347.1580810546875 -347.1580810546875,-629.0234985351562 0,-629.0234985351562z"></path></g></g></g></svg>