<svg width="58" height="24" viewBox="0 0 58 24" fill="none" xmlns="http://www.w3.org/2000/svg">
<path d="M26.2611 21.7617C27.702 22.9818 29.4223 23.605 31.3895 23.6312C35.4005 23.5978 37.8071 21.258 37.8071 17.8153C37.8071 14.64 34.9994 12.5008 31.0219 11.4312C28.8827 10.7961 27.5123 10.2614 25.9413 9.29204C24.4372 8.32272 23.6016 6.95232 23.6016 5.21424C23.6016 3.17534 24.6378 1.70465 26.2422 1.00274C27.88 0.30082 29.5512 0 31.5232 0C34.1638 0 36.6706 0.534793 39.0438 1.57096C39.0438 2.87451 38.8767 4.57917 38.509 6.71834H38.2082C38.4421 4.87999 37.9742 3.37588 36.7375 2.20602C35.5008 1.03616 33.7627 0.434518 31.5232 0.36767C28.7156 0.434518 27.2115 1.83835 26.9775 4.57917C26.9775 6.98574 28.749 8.0219 32.058 8.95779C32.1953 8.99763 32.329 9.0363 32.4592 9.07395C33.3119 9.32056 34.014 9.52359 34.5649 9.72656C35.2334 9.96053 36.0021 10.2948 36.8712 10.7293C39.3112 11.8992 40.5813 13.6038 40.7484 16.612C40.7484 18.7512 39.846 20.5227 38.0076 21.9265C36.1693 23.3304 33.9632 24.0323 31.3561 23.9989C30.3534 23.9654 29.2838 23.8317 28.1808 23.5978C27.7379 23.5038 27.295 23.3722 26.85 23.2049L26.6728 23.6978H23.5978L17.9824 7.55371C17.7485 6.81837 17.3139 5.74878 16.6789 4.31153C16.0438 2.87427 15.509 1.90496 15.1413 1.47044C14.7068 0.935643 14.1386 0.601395 13.5035 0.434272H20.5896C19.8876 0.601395 19.5534 1.00249 19.5534 1.60413C19.5534 2.2392 19.7874 3.27536 20.2219 4.74605L25.2473 18.9229L26.2611 21.7617Z" fill="#201D25"/>
<path d="M27.3942 21.6912C27.2691 21.5994 27.1455 21.501 27.0229 21.3957L30.4264 11.8272C30.5764 11.8741 30.7306 11.9214 30.8893 11.9693L27.3942 21.6912Z" fill="#201D25"/>
<path d="M31.8871 7.72084L31.6608 8.35687C31.7564 8.38517 31.8534 8.41335 31.9519 8.44142C32.0148 8.4598 32.0768 8.47791 32.138 8.49577L32.4887 7.52029C32.6007 7.23232 32.6821 7.00562 32.7401 6.84383C32.8034 6.6676 32.839 6.5684 32.8564 6.55097C33.4914 4.91317 33.926 3.87701 34.0931 3.50934C34.4918 2.75468 34.7958 2.222 35.0909 1.83587C34.5415 1.53926 33.9231 1.3201 33.2355 1.17661C33.3616 1.44964 33.4246 1.79269 33.4246 2.20578C33.4246 2.67372 33.2241 3.57619 32.8564 4.91317C32.4887 6.21673 32.1545 7.15262 31.8871 7.72084Z" fill="#201D25"/>
<path d="M18.1496 9.69289L13.537 22.6616L7.92163 7.72084C7.82774 7.43917 7.56903 6.84434 7.36541 6.37617C7.27906 6.17766 7.20263 6.00191 7.15286 5.88248C7.13222 5.82468 7.11209 5.7679 7.09234 5.71219C6.9522 5.31698 6.8314 4.97628 6.68492 4.71262C6.2504 3.30879 6.04985 2.27263 6.04985 1.57071C6.04985 0.969067 6.3841 0.567971 7.05259 0.400848H0C0.701917 0.567971 1.23671 0.935643 1.60438 1.43701C2.3063 2.27263 3.27561 4.2781 4.4789 7.52029L10.5956 23.6978H13.6707L18.417 10.3614L18.1496 9.69289Z" fill="#201D25"/>
<path d="M39.7863 21.0765C40.1973 20.5611 40.5192 20.0106 40.7531 19.4248C40.9909 19.8394 41.2694 20.2388 41.5884 20.623C43.2262 22.595 45.332 23.5978 47.8388 23.6312C51.8498 23.5978 54.2564 21.258 54.2564 17.8153C54.2564 14.64 51.4487 12.5008 47.4712 11.4312C45.332 10.7961 43.9616 10.2614 42.3906 9.29204C40.8865 8.32272 40.0509 6.95232 40.0509 5.21424C40.0509 3.17534 41.0871 1.70465 42.6914 1.00274C44.3292 0.30082 46.0005 0 47.9725 0C50.6131 0 53.1199 0.534793 55.4931 1.57096C55.4931 2.87451 55.3259 4.57917 54.9583 6.71834H54.6574C54.8914 4.87999 54.4235 3.37588 53.1868 2.20602C51.9501 1.03616 50.212 0.434518 47.9725 0.36767C45.1649 0.434518 43.6608 1.83835 43.4268 4.57917C43.4268 6.98574 45.1983 8.0219 48.5073 8.95779C48.6445 8.99763 48.7783 9.0363 48.9084 9.07395C49.7613 9.32059 50.4632 9.52357 51.0142 9.72656C51.6827 9.96053 52.4514 10.2948 53.3205 10.7293C55.7605 11.8992 57.0306 13.6038 57.1977 16.612C57.1977 18.7512 56.2953 20.5227 54.4569 21.9265C52.6185 23.3304 50.4125 24.0323 47.8054 23.9989C46.8027 23.9654 45.7331 23.8317 44.6301 23.5978C43.5271 23.3638 42.424 22.8958 41.2876 22.2274C40.6968 21.8798 40.1964 21.4962 39.7863 21.0765Z" fill="#201D25"/>
</svg>
