<svg width="92" height="44" viewBox="0 0 92 44" fill="none" xmlns="http://www.w3.org/2000/svg">
<path d="M91.5431 31.1304C91.297 28.6792 91.0509 26.5956 90.6818 24.7572L89.5744 24.6346C90.5588 29.7822 89.4514 34.0719 86.3753 37.7488C83.2993 41.4257 79.485 43.2641 74.8093 43.2641C67.4268 43.2641 62.9973 38.9744 62.9973 32.6012C62.9973 26.7182 68.165 22.7962 75.5476 20.8352C79.485 19.6095 82.0688 18.629 84.8988 16.9132C87.6058 15.0747 89.2053 12.6235 89.2053 9.43684C89.2053 5.75996 87.2366 3.06358 84.2836 1.71539C81.2076 0.367204 78.1315 -0.123047 74.5633 -0.123047C73.3328 -0.123047 72.1024 -0.000484213 70.872 0.122078C69.1494 0.367204 67.7959 0.857454 66.0733 1.71539C65.7042 1.96052 65.212 2.20564 64.8429 2.57333C63.4894 3.55383 62.136 5.14715 61.0286 7.72096C60.6595 8.45634 60.4134 9.19172 60.0442 10.1722C59.7982 10.785 59.5521 11.5204 59.306 12.2558C59.1829 12.8686 58.9369 13.4814 58.6908 13.9717C58.6908 14.0942 58.6908 14.0942 58.6908 14.2168L48.8474 41.6708L39.6192 17.1583C37.2814 10.0497 33.9592 6.12765 30.7601 3.79896C28.5454 2.20564 26.4536 1.34771 24.608 0.980017C24.3619 0.980017 24.2389 0.857454 24.1158 0.857454C21.778 0.244641 19.3172 -0.000484213 16.8563 -0.000484213C13.165 -0.000484213 10.089 0.612329 7.13596 1.83796C4.18294 3.06358 2.21426 5.75996 2.21426 9.5594C2.21426 12.746 3.81381 15.3198 6.52075 17.0357C9.35073 18.8742 11.9346 19.7321 15.872 20.9577C23.2545 22.9187 28.4223 26.8407 28.4223 32.7237C28.4223 39.097 23.9928 43.3867 16.6102 43.3867C11.9346 43.3867 8.1203 41.5483 5.04424 37.8714C1.96817 34.1945 0.983835 29.9048 1.84513 24.7572L0.73775 24.8797C0.368622 26.7182 0.122537 28.8017 -0.123548 31.253C-0.369633 33.5817 -0.24659 35.2976 -0.123548 36.4006C0.73775 38.1165 2.21426 39.5873 4.30598 40.8129C6.39771 42.0385 8.48943 42.8964 10.4581 43.2641C12.5498 43.6318 14.3955 43.8769 16.3641 43.9995C21.1628 43.9995 25.2232 42.7739 28.6684 40.2001C32.1136 37.6263 33.7131 34.3171 33.7131 30.3951C33.4671 24.8797 31.0062 21.8157 26.5767 19.6095C24.9771 18.7516 23.5006 18.1388 22.2702 17.7711C21.0398 17.2809 19.5633 16.9132 17.7176 16.3004C11.5655 14.5845 8.36639 12.6235 8.36639 8.21121C8.73551 3.18614 11.5655 0.612329 16.7333 0.489766C19.0711 0.612329 21.1628 0.980017 22.8854 1.71539H23.0084C23.1315 1.71539 23.1315 1.83796 23.2545 1.83796C23.3776 1.96052 23.6237 1.96052 23.7467 2.08308C24.731 2.57333 25.4693 3.06358 26.2075 3.79896L26.3306 3.92152C26.9458 4.53433 27.438 5.14715 27.8071 5.75996C28.5454 6.86302 29.2836 8.08865 29.8988 9.5594C29.8988 9.5594 29.8988 9.68197 30.0219 9.80453C30.6371 11.0302 31.1292 12.2558 31.6214 13.4814C34.4514 20.4675 38.2657 30.5176 43.3105 43.3867H49.3395L60.0442 13.7265L60.6595 11.8881C60.6595 11.7655 60.7825 11.643 60.7825 11.5204C61.0286 10.785 61.2747 10.1722 61.3977 9.5594C62.0129 8.08865 62.5051 6.86302 63.1203 5.88252C64.3507 3.92152 65.8272 2.69589 68.5342 1.71539H68.6572C70.3798 0.980017 72.4715 0.612329 74.8093 0.489766C79.9771 0.612329 82.8071 3.18614 83.1762 8.21121C83.1762 12.6235 79.8541 14.5845 73.825 16.3004C71.9794 16.9132 70.3798 17.2809 69.1494 17.7711C67.919 18.1388 66.4425 18.7516 64.8429 19.6095C60.2903 21.8157 57.9525 24.8797 57.7064 30.3951C57.7064 34.3171 59.429 37.6263 62.7512 40.2001C66.1964 42.7739 70.2568 43.9995 75.0554 43.9995C76.9011 43.9995 78.8698 43.7544 80.9615 43.2641C82.9302 42.7739 85.0219 42.0385 87.1136 40.8129C89.2053 39.5873 90.6818 38.1165 91.5431 36.4006C91.6662 35.175 91.6662 33.4591 91.5431 31.1304Z" fill="#201D25"/>
</svg>
