<svg width="161" height="161" viewBox="0 0 161 161" fill="none" xmlns="http://www.w3.org/2000/svg">
<path d="M149.269 82.9291L149.475 80.3896C148.741 80.3188 148.095 80.4009 147.538 80.636C146.981 80.871 146.511 81.2085 146.127 81.6482C145.743 82.0992 145.448 82.6246 145.243 83.2245C145.025 83.8347 144.889 84.4684 144.836 85.1255C144.77 85.9386 144.807 86.6592 144.946 87.2872C145.085 87.9263 145.305 88.4654 145.606 88.9047C145.917 89.356 146.297 89.7064 146.748 89.956C147.199 90.2056 147.697 90.3526 148.243 90.3969C148.911 90.4511 149.468 90.3506 149.915 90.0954C150.372 89.8522 150.745 89.5461 151.032 89.177C151.32 88.808 151.536 88.4275 151.68 88.0356C151.834 87.6557 151.943 87.3561 152.005 87.137C152.255 86.4061 152.46 85.8117 152.621 85.3539C152.78 84.9071 152.932 84.5551 153.077 84.2977C153.22 84.0515 153.368 83.8897 153.52 83.8123C153.672 83.735 153.865 83.7058 154.098 83.7248C154.355 83.7456 154.562 83.8185 154.72 83.9434C154.878 84.0683 155.006 84.2189 155.104 84.395C155.2 84.5823 155.263 84.7835 155.29 84.9987C155.317 85.214 155.322 85.4274 155.305 85.6391C155.279 85.9621 155.227 86.255 155.15 86.5178C155.072 86.7917 154.957 87.0291 154.806 87.2298C154.655 87.4306 154.458 87.5828 154.214 87.6863C153.969 87.801 153.668 87.855 153.31 87.8483L153.104 90.3879C153.794 90.4439 154.39 90.3577 154.89 90.1293C155.401 89.9129 155.831 89.5946 156.179 89.1744C156.527 88.7541 156.791 88.2599 156.972 87.6915C157.163 87.1352 157.283 86.5452 157.334 85.9215C157.378 85.3868 157.349 84.8463 157.247 84.2999C157.146 83.7535 156.962 83.2565 156.695 82.8088C156.429 82.3612 156.078 81.9851 155.643 81.6807C155.219 81.3884 154.7 81.2174 154.087 81.1676C153.542 81.1233 153.066 81.1856 152.66 81.3544C152.264 81.5353 151.924 81.7824 151.641 82.0958C151.358 82.4092 151.115 82.7707 150.914 83.1804C150.723 83.591 150.554 84.0145 150.407 84.451C150.249 84.8754 150.103 85.2952 149.968 85.7103C149.834 86.1255 149.686 86.4947 149.525 86.818C149.364 87.1413 149.176 87.395 148.959 87.5792C148.741 87.7746 148.471 87.8592 148.148 87.8329C147.847 87.8085 147.603 87.7102 147.415 87.538C147.238 87.3667 147.104 87.1596 147.011 86.9166C146.919 86.6737 146.861 86.4167 146.839 86.1458C146.827 85.8758 146.831 85.6238 146.849 85.3899C146.878 85.0446 146.944 84.7136 147.048 84.3969C147.163 84.0812 147.314 83.8075 147.501 83.5761C147.698 83.3566 147.942 83.1858 148.232 83.0636C148.523 82.9414 148.868 82.8966 149.269 82.9291Z" fill="#201D25"/>
<path d="M148.564 98.3653L148.023 100.632C148.574 100.729 149.073 100.71 149.518 100.575C149.975 100.443 150.378 100.223 150.727 99.9155C151.084 99.6216 151.384 99.2566 151.626 98.8203C151.865 98.3949 152.045 97.9322 152.164 97.4322C152.327 96.7474 152.358 96.1114 152.257 95.5243C152.156 94.9373 151.943 94.4096 151.618 93.9415C151.304 93.476 150.888 93.0779 150.369 92.7474C149.859 92.4303 149.278 92.194 148.626 92.0384C147.995 91.8879 147.389 91.8524 146.807 91.9319C146.236 92.0139 145.716 92.1943 145.248 92.4731C144.779 92.7519 144.374 93.1262 144.032 93.5961C143.698 94.0794 143.456 94.6363 143.306 95.2667C143.039 96.3863 143.113 97.3748 143.529 98.2323C143.945 99.0898 144.694 99.7282 145.777 100.148L146.31 97.9138C145.807 97.7132 145.434 97.4231 145.191 97.0435C144.957 96.6774 144.906 96.2172 145.038 95.6628C145.124 95.3041 145.278 95.0192 145.5 94.8081C145.723 94.597 145.978 94.4452 146.264 94.3527C146.559 94.2737 146.871 94.2391 147.202 94.2491C147.533 94.2591 147.85 94.3004 148.155 94.3731C148.47 94.4483 148.777 94.5561 149.077 94.6966C149.388 94.8396 149.655 95.0183 149.88 95.2327C150.113 95.4606 150.281 95.719 150.384 96.0079C150.498 96.2995 150.511 96.63 150.423 96.9996C150.187 97.9887 149.567 98.4439 148.564 98.3653Z" fill="#201D25"/>
<path d="M150.34 103.202L142.214 100.188L141.387 102.42L145.048 103.778C145.415 103.914 145.742 104.077 146.029 104.267C146.316 104.457 146.544 104.679 146.712 104.932C146.887 105.2 146.99 105.5 147.021 105.833C147.053 106.167 146.993 106.538 146.841 106.946C146.791 107.083 146.728 107.22 146.652 107.359C146.587 107.502 146.525 107.622 146.465 107.719L148.54 108.488C148.658 108.33 148.745 108.177 148.799 108.03C148.904 107.747 148.963 107.459 148.976 107.166C148.99 106.873 148.961 106.582 148.889 106.294C148.828 106.009 148.72 105.736 148.566 105.477C148.423 105.221 148.245 104.994 148.032 104.796L148.044 104.764L149.553 105.324L150.34 103.202Z" fill="#201D25"/>
<path d="M142.717 110.451C143.023 110.613 143.309 110.802 143.574 111.017C143.84 111.233 144.049 111.47 144.204 111.729C144.353 111.997 144.434 112.286 144.447 112.596C144.47 112.912 144.388 113.247 144.2 113.603C144.012 113.959 143.781 114.216 143.508 114.375C143.239 114.549 142.955 114.645 142.654 114.664C142.349 114.692 142.032 114.658 141.704 114.56C141.377 114.463 141.06 114.334 140.753 114.172C140.447 114.01 140.161 113.822 139.896 113.606C139.641 113.395 139.433 113.153 139.274 112.88C139.12 112.622 139.039 112.332 139.031 112.012C139.018 111.702 139.105 111.369 139.293 111.013C139.481 110.658 139.706 110.398 139.97 110.233C140.234 110.069 140.518 109.973 140.824 109.945C141.134 109.932 141.448 109.971 141.766 110.063C142.094 110.16 142.411 110.29 142.717 110.451ZM143.828 108.346C143.215 108.023 142.612 107.825 142.019 107.752C141.426 107.679 140.86 107.721 140.322 107.879C139.793 108.043 139.307 108.317 138.864 108.702C138.421 109.087 138.04 109.581 137.722 110.184C137.403 110.787 137.21 111.38 137.143 111.963C137.07 112.557 137.115 113.117 137.278 113.646C137.451 114.18 137.735 114.671 138.131 115.119C138.526 115.568 139.029 115.954 139.642 116.277C140.255 116.601 140.858 116.799 141.451 116.872C142.054 116.95 142.62 116.908 143.149 116.744C143.687 116.586 144.18 116.309 144.629 115.914C145.082 115.535 145.468 115.043 145.786 114.44C146.104 113.837 146.292 113.242 146.35 112.653C146.418 112.07 146.365 111.511 146.192 110.978C146.029 110.449 145.745 109.958 145.34 109.504C144.945 109.056 144.441 108.67 143.828 108.346Z" fill="#201D25"/>
<path d="M144.708 122.348L134.828 115.593L133.485 117.558L143.365 124.313L144.708 122.348Z" fill="#201D25"/>
<path d="M141.586 126.763L132.198 119.34L130.722 121.207L140.11 128.63L141.586 126.763Z" fill="#201D25"/>
<path d="M129.954 134.601L131.723 136.504L133.466 134.883L131.697 132.98L132.753 131.998L131.669 130.832L130.613 131.814L127.131 128.07C126.835 127.751 126.542 127.542 126.253 127.445C125.964 127.347 125.68 127.329 125.401 127.39C125.114 127.459 124.836 127.587 124.568 127.775C124.285 127.962 124.008 128.182 123.738 128.433C123.566 128.593 123.394 128.76 123.222 128.936C123.049 129.111 122.901 129.28 122.776 129.442L124.032 130.792C124.098 130.699 124.173 130.607 124.255 130.515C124.338 130.423 124.428 130.332 124.526 130.24C124.821 129.967 125.063 129.833 125.252 129.84C125.442 129.847 125.674 129.998 125.948 130.292L128.87 133.435L127.593 134.622L128.677 135.788L129.954 134.601Z" fill="#201D25"/>
<path d="M122.747 135.05C122.95 135.331 123.122 135.626 123.264 135.938C123.406 136.249 123.488 136.554 123.512 136.854C123.526 137.161 123.471 137.456 123.345 137.74C123.225 138.033 123.003 138.297 122.676 138.532C122.35 138.768 122.029 138.896 121.714 138.917C121.396 138.954 121.098 138.914 120.821 138.797C120.534 138.686 120.266 138.515 120.015 138.282C119.765 138.05 119.538 137.793 119.335 137.512C119.133 137.231 118.96 136.935 118.818 136.624C118.683 136.322 118.605 136.013 118.584 135.698C118.56 135.398 118.616 135.103 118.751 134.812C118.877 134.529 119.103 134.269 119.429 134.033C119.755 133.798 120.073 133.665 120.382 133.635C120.691 133.605 120.989 133.645 121.275 133.755C121.559 133.881 121.823 134.056 122.067 134.279C122.317 134.512 122.544 134.769 122.747 135.05ZM124.677 133.656C124.271 133.095 123.819 132.649 123.32 132.321C122.821 131.992 122.295 131.779 121.742 131.682C121.196 131.593 120.639 131.623 120.071 131.772C119.502 131.92 118.942 132.194 118.389 132.593C117.836 132.992 117.4 133.438 117.08 133.93C116.752 134.429 116.543 134.952 116.455 135.498C116.373 136.053 116.41 136.619 116.565 137.197C116.72 137.774 117 138.344 117.405 138.905C117.811 139.467 118.263 139.912 118.762 140.241C119.268 140.579 119.794 140.792 120.34 140.88C120.893 140.977 121.458 140.949 122.035 140.794C122.61 140.655 123.174 140.385 123.726 139.986C124.279 139.587 124.712 139.137 125.025 138.635C125.345 138.143 125.545 137.619 125.627 137.064C125.715 136.518 125.679 135.951 125.517 135.365C125.362 134.788 125.082 134.218 124.677 133.656Z" fill="#201D25"/>
<path d="M105.835 144.728C105.694 144.399 105.589 144.067 105.519 143.733C105.449 143.398 105.433 143.077 105.471 142.769C105.514 142.471 105.628 142.197 105.813 141.948C105.988 141.703 106.255 141.504 106.615 141.35C106.954 141.205 107.278 141.152 107.586 141.191C107.888 141.244 108.172 141.353 108.437 141.519C108.697 141.7 108.928 141.929 109.132 142.207C109.336 142.484 109.503 142.777 109.635 143.085C109.776 143.414 109.879 143.741 109.945 144.065C110.004 144.404 110.013 144.723 109.97 145.02C109.917 145.323 109.798 145.598 109.613 145.848C109.427 146.097 109.155 146.298 108.795 146.452C108.436 146.606 108.107 146.661 107.809 146.618C107.511 146.576 107.24 146.467 106.995 146.292C106.744 146.132 106.522 145.911 106.329 145.629C106.14 145.357 105.975 145.057 105.835 144.728ZM104.526 141.751L104.091 140.734L102.01 141.623L106.714 152.628L108.902 151.693L107.19 147.685L107.22 147.672C107.634 147.957 108.098 148.105 108.613 148.116C109.122 148.141 109.613 148.053 110.086 147.851C110.672 147.601 111.135 147.263 111.476 146.838C111.821 146.423 112.061 145.962 112.197 145.454C112.322 144.951 112.354 144.415 112.293 143.845C112.226 143.291 112.079 142.746 111.85 142.212C111.613 141.657 111.313 141.153 110.949 140.701C110.576 140.253 110.159 139.89 109.7 139.612C109.235 139.349 108.726 139.196 108.173 139.153C107.625 139.12 107.052 139.231 106.456 139.486C105.932 139.71 105.504 140.002 105.172 140.363C104.834 140.738 104.629 141.196 104.557 141.738L104.526 141.751Z" fill="#201D25"/>
<path d="M100.83 152.369L101.393 154.248L103.673 153.564L103.11 151.686L100.83 152.369ZM102.725 150.401L100.237 142.1L97.9574 142.783L100.445 151.085L102.725 150.401Z" fill="#201D25"/>
<path d="M94.8224 146.493L97.0469 146.077C96.9182 145.51 96.7026 145.056 96.4001 144.715C96.0887 144.386 95.7302 144.141 95.3246 143.978C94.908 143.817 94.4543 143.731 93.9635 143.72C93.4727 143.71 92.9801 143.75 92.4858 143.843C92.0025 143.933 91.5394 144.071 91.0965 144.256C90.6405 144.432 90.2528 144.669 89.9334 144.967C89.614 145.266 89.3793 145.622 89.2294 146.037C89.0705 146.464 89.0434 146.958 89.148 147.519C89.2219 147.914 89.3603 148.229 89.5634 148.464C89.7685 148.71 90.0137 148.897 90.2992 149.026C90.5868 149.165 90.9056 149.259 91.2556 149.308C91.5947 149.358 91.9417 149.39 92.2966 149.403C92.6405 149.418 92.9779 149.429 93.3088 149.436C93.6396 149.442 93.9386 149.46 94.2056 149.49C94.4637 149.533 94.6819 149.605 94.8603 149.709C95.0387 149.812 95.1474 149.968 95.1864 150.176C95.2193 150.352 95.201 150.498 95.1315 150.613C95.0642 150.739 94.9752 150.841 94.8646 150.918C94.7431 150.998 94.6064 151.058 94.4547 151.097C94.305 151.148 94.1643 151.186 94.0324 151.21C93.615 151.288 93.2371 151.274 92.8988 151.166C92.5625 151.07 92.3358 150.8 92.2187 150.355L89.9942 150.771C90.1367 151.29 90.355 151.698 90.6493 151.996C90.9347 152.306 91.2671 152.534 91.6466 152.679C92.0261 152.824 92.4438 152.9 92.8996 152.905C93.3444 152.913 93.7975 152.874 94.2589 152.788C94.7203 152.702 95.1624 152.574 95.5854 152.404C96.0105 152.245 96.3792 152.028 96.6918 151.754C97.0064 151.49 97.2407 151.162 97.3947 150.77C97.5378 150.379 97.558 149.91 97.4554 149.36C97.3857 148.987 97.2493 148.683 97.0463 148.448C96.8453 148.224 96.602 148.047 96.3166 147.919C96.0331 147.801 95.7219 147.717 95.3828 147.667C95.0348 147.63 94.6833 147.604 94.3284 147.591C93.4607 147.571 92.7798 147.517 92.2856 147.427C91.7804 147.339 91.495 147.12 91.4294 146.768C91.3904 146.56 91.407 146.375 91.4792 146.213C91.5534 146.063 91.6592 145.93 91.7966 145.813C91.925 145.71 92.0785 145.618 92.2571 145.54C92.4267 145.474 92.5939 145.425 92.7586 145.395C92.9893 145.352 93.2196 145.337 93.4496 145.351C93.6686 145.367 93.8707 145.414 94.056 145.493C94.2433 145.583 94.4083 145.706 94.551 145.861C94.6848 146.03 94.7752 146.24 94.8224 146.493Z" fill="#201D25"/>
<path d="M81.4117 150.844L79.0838 150.943C79.1411 151.5 79.2954 151.974 79.547 152.366C79.799 152.77 80.1205 153.097 80.5114 153.349C80.8917 153.612 81.3248 153.801 81.8106 153.914C82.2852 154.028 82.7793 154.075 83.2929 154.053C83.9962 154.023 84.6165 153.879 85.1536 153.621C85.6907 153.364 86.1401 153.015 86.5017 152.574C86.8637 152.145 87.1329 151.636 87.3092 151.047C87.4748 150.469 87.5434 149.846 87.515 149.176C87.4875 148.528 87.356 147.935 87.1206 147.397C86.8857 146.87 86.5702 146.42 86.174 146.045C85.7778 145.67 85.307 145.383 84.7616 145.182C84.2055 144.993 83.6037 144.913 82.9561 144.94C81.8061 144.989 80.8755 145.331 80.1642 145.965C79.453 146.599 79.0436 147.494 78.9361 148.651L81.2305 148.553C81.2859 148.014 81.463 147.576 81.7619 147.239C82.0501 146.914 82.4789 146.739 83.0483 146.715C83.4167 146.699 83.7329 146.769 83.9968 146.926C84.2607 147.083 84.4763 147.286 84.6435 147.536C84.8 147.798 84.9186 148.089 84.9994 148.41C85.0801 148.731 85.1271 149.048 85.1404 149.361C85.1542 149.684 85.1344 150.009 85.0812 150.336C85.0284 150.674 84.9296 150.98 84.7846 151.255C84.629 151.541 84.4264 151.773 84.1767 151.952C83.9275 152.141 83.6131 152.244 83.2335 152.26C82.2175 152.303 81.6102 151.831 81.4117 150.844Z" fill="#201D25"/>
<path d="M75.0889 149.39C75.0515 149.734 74.9815 150.07 74.8787 150.396C74.7759 150.722 74.6329 151.004 74.4497 151.243C74.2554 151.48 74.0165 151.662 73.733 151.789C73.4483 151.927 73.106 151.974 72.706 151.931C72.306 151.887 71.9818 151.768 71.7332 151.572C71.4723 151.387 71.2779 151.158 71.1501 150.885C71.0111 150.612 70.9264 150.305 70.8958 149.964C70.8653 149.624 70.8687 149.281 70.906 148.937C70.9433 148.592 71.0134 148.257 71.1161 147.931C71.2177 147.616 71.3663 147.334 71.5618 147.086C71.745 146.847 71.984 146.665 72.2786 146.539C72.562 146.413 72.9038 146.371 73.3037 146.414C73.7037 146.458 74.0286 146.572 74.2783 146.756C74.5281 146.941 74.7225 147.17 74.8614 147.443C74.9881 147.727 75.0673 148.033 75.099 148.363C75.1296 148.703 75.1262 149.045 75.0889 149.39ZM77.4553 149.646C77.5299 148.958 77.4918 148.324 77.3409 147.746C77.19 147.167 76.9418 146.657 76.5963 146.215C76.2496 145.784 75.8155 145.433 75.294 145.163C74.7725 144.893 74.1728 144.721 73.4951 144.648C72.8174 144.575 72.195 144.614 71.6277 144.766C71.0493 144.917 70.5447 145.166 70.1137 145.512C69.6815 145.87 69.3298 146.315 69.0585 146.848C68.7872 147.381 68.6142 147.991 68.5396 148.68C68.465 149.369 68.5031 150.003 68.654 150.581C68.8037 151.17 69.0519 151.681 69.3986 152.112C69.7441 152.554 70.1831 152.91 70.7158 153.182C71.2361 153.463 71.8351 153.64 72.5128 153.714C73.1905 153.787 73.8136 153.742 74.382 153.579C74.9493 153.427 75.449 153.172 75.8812 152.814C76.3122 152.467 76.6639 152.022 76.9364 151.478C77.2077 150.946 77.3806 150.335 77.4553 149.646Z" fill="#201D25"/>
<path d="M63.0572 142.928L58.0752 150.602L60.3655 151.186L63.5968 145.903L63.6293 145.911L63.9391 152.096L66.3594 152.713L65.6237 143.582L63.0572 142.928Z" fill="#201D25"/>
<path d="M52.2057 144.685L55.7941 146.14C55.7207 146.291 55.6183 146.455 55.4867 146.63C55.3448 146.802 55.1709 146.949 54.9649 147.07C54.7485 147.187 54.5033 147.257 54.2293 147.278C53.9407 147.306 53.6204 147.248 53.2682 147.106C52.7297 146.887 52.3898 146.581 52.2485 146.186C52.0968 145.787 52.0825 145.286 52.2057 144.685ZM56.3609 144.742L50.5667 142.393C50.2733 142.997 50.0837 143.614 49.9977 144.242C49.9118 144.871 49.9442 145.475 50.0951 146.054C50.2356 146.63 50.507 147.15 50.9095 147.614C51.3078 148.089 51.8487 148.465 52.5322 148.743C53.1432 148.99 53.7465 149.108 54.3421 149.097C54.9274 149.081 55.479 148.955 55.9968 148.718C56.5104 148.492 56.9706 148.161 57.3773 147.723C57.784 147.284 58.1091 146.765 58.3526 146.165C58.6046 145.543 58.7423 144.936 58.7658 144.342C58.779 143.745 58.6851 143.188 58.4842 142.673C58.2832 142.157 57.971 141.693 57.5475 141.28C57.1199 140.877 56.5902 140.548 55.9585 140.292C55.0471 139.923 54.1864 139.815 53.3764 139.969C52.5664 140.123 51.8108 140.618 51.1096 141.455L53.0514 142.243C53.2246 142.023 53.518 141.865 53.9314 141.767C54.3406 141.68 54.7679 141.727 55.2132 141.907C55.8345 142.159 56.2458 142.513 56.4471 142.968C56.6483 143.424 56.6196 144.015 56.3609 144.742Z" fill="#201D25"/>
<path d="M46.8328 145.941L51.0466 138.369L48.9667 137.211L47.0676 140.624C46.8774 140.966 46.6667 141.264 46.4353 141.519C46.2039 141.774 45.9504 141.965 45.6746 142.093C45.3836 142.225 45.071 142.282 44.7367 142.262C44.4024 142.242 44.0448 142.126 43.664 141.914C43.5371 141.844 43.4107 141.761 43.2848 141.665C43.1535 141.579 43.0445 141.499 42.9577 141.425L41.8819 143.359C42.0207 143.5 42.1585 143.609 42.2952 143.685C42.5588 143.832 42.8344 143.934 43.122 143.991C43.4096 144.049 43.7016 144.065 43.9979 144.038C44.2888 144.02 44.5743 143.956 44.8544 143.843C45.1291 143.74 45.3805 143.598 45.6086 143.418L45.6378 143.435L44.8554 144.841L46.8328 145.941Z" fill="#201D25"/>
<path d="M35.5009 139.14L41.3559 132.751L39.601 131.143L36.2036 134.85C35.9167 135.163 35.6411 135.373 35.3768 135.48C35.105 135.594 34.862 135.645 34.6478 135.63C34.4178 135.616 34.2218 135.566 34.0598 135.478C33.882 135.391 33.7519 135.309 33.6695 135.234C33.3894 134.977 33.2246 134.735 33.1751 134.508C33.1099 134.281 33.1201 134.064 33.2059 133.854C33.2835 133.637 33.4049 133.43 33.5703 133.233C33.7282 133.044 33.894 132.855 34.0676 132.666L37.3518 129.082L35.5969 127.474L32.3354 131.033C32.1542 131.231 31.9644 131.413 31.766 131.58C31.5519 131.747 31.3357 131.867 31.1174 131.94C30.8833 132.014 30.6506 132.028 30.4193 131.983C30.1721 131.938 29.925 131.802 29.6778 131.576C29.4306 131.349 29.2748 131.131 29.2102 130.92C29.1374 130.702 29.1281 130.489 29.1823 130.281C29.2365 130.073 29.3422 129.866 29.4994 129.662C29.6565 129.457 29.8333 129.248 30.0296 129.034L33.3478 125.413L31.5929 123.804L27.6745 128.08C27.297 128.492 27.0338 128.895 26.8849 129.289C26.7284 129.692 26.6702 130.078 26.71 130.448C26.7499 130.818 26.8763 131.176 27.0891 131.523C27.302 131.869 27.5773 132.198 27.9151 132.507C28.36 132.915 28.8454 133.162 29.3712 133.25C29.8888 133.331 30.3707 133.317 30.8169 133.211C30.6275 133.765 30.63 134.275 30.8244 134.741C31.0105 135.2 31.3054 135.614 31.7091 135.984C32.1292 136.369 32.5872 136.622 33.0828 136.742C33.5702 136.856 34.0803 136.853 34.6129 136.735L34.6377 136.758L33.8449 137.623L35.5009 139.14Z" fill="#201D25"/>
<path d="M25.9916 123.46C25.7137 123.666 25.4203 123.843 25.1113 123.989C24.8023 124.136 24.4981 124.223 24.1985 124.251C23.8922 124.27 23.5963 124.219 23.3106 124.097C23.016 123.982 22.7486 123.763 22.5084 123.44C22.2682 123.117 22.1353 122.798 22.1096 122.483C22.0683 122.166 22.104 121.867 22.2168 121.589C22.3229 121.301 22.4904 121.03 22.7193 120.776C22.9482 120.522 23.2016 120.291 23.4795 120.085C23.7574 119.878 24.0508 119.701 24.3598 119.555C24.6598 119.415 24.9674 119.332 25.2826 119.307C25.5822 119.279 25.8782 119.33 26.1705 119.461C26.4561 119.582 26.719 119.805 26.9592 120.127C27.1994 120.45 27.3368 120.766 27.3715 121.074C27.4061 121.383 27.3704 121.681 27.2643 121.969C27.1426 122.255 26.9717 122.521 26.7518 122.768C26.5229 123.022 26.2695 123.253 25.9916 123.46ZM27.4128 125.369C27.9686 124.955 28.4072 124.497 28.7286 123.993C29.0501 123.489 29.2554 122.96 29.3446 122.406C29.4248 121.858 29.3866 121.302 29.23 120.736C29.0734 120.17 28.7916 119.613 28.3846 119.067C27.9776 118.52 27.5254 118.09 27.0282 117.778C26.5242 117.456 25.9986 117.255 25.4513 117.175C24.8951 117.101 24.3295 117.146 23.7545 117.31C23.1795 117.473 22.6141 117.761 22.0583 118.175C21.5025 118.589 21.0639 119.048 20.7425 119.552C20.412 120.062 20.2067 120.591 20.1265 121.138C20.0373 121.692 20.0744 122.257 20.2376 122.832C20.3853 123.404 20.6626 123.964 21.0696 124.511C21.4766 125.058 21.9333 125.484 22.4395 125.79C22.9367 126.102 23.4635 126.296 24.0197 126.369C24.567 126.449 25.1326 126.404 25.7166 126.234C26.2916 126.071 26.857 125.783 27.4128 125.369Z" fill="#201D25"/>
<path d="M17.3009 118.638L24.858 114.396L23.693 112.32L20.2871 114.232C19.9461 114.424 19.6102 114.567 19.2796 114.663C18.949 114.759 18.6327 114.789 18.3308 114.753C18.0137 114.714 17.7179 114.598 17.4436 114.406C17.1692 114.214 16.9254 113.928 16.7121 113.548C16.6409 113.421 16.5769 113.284 16.5198 113.137C16.4529 112.995 16.4019 112.87 16.3667 112.761L14.4372 113.844C14.4815 114.037 14.5419 114.202 14.6185 114.338C14.7662 114.601 14.9474 114.833 15.1621 115.033C15.3768 115.233 15.6174 115.399 15.8839 115.531C16.1406 115.669 16.4178 115.763 16.7155 115.814C17.0033 115.87 17.2916 115.881 17.5801 115.848L17.5965 115.877L16.1933 116.665L17.3009 118.638Z" fill="#201D25"/>
<path d="M14.4844 105.145L15.9528 108.728C15.7934 108.781 15.6049 108.822 15.3873 108.851C15.1654 108.869 14.939 108.847 14.7081 108.785C14.473 108.712 14.252 108.585 14.045 108.405C13.8235 108.218 13.6406 107.948 13.4966 107.597C13.2762 107.059 13.2578 106.602 13.4414 106.225C13.6208 105.837 13.9684 105.477 14.4844 105.145ZM17.3487 108.156L14.9778 102.37C14.3404 102.583 13.767 102.879 13.2576 103.256C12.7483 103.634 12.339 104.08 12.03 104.593C11.7167 105.096 11.5347 105.653 11.4838 106.266C11.4226 106.883 11.5318 107.532 11.8115 108.215C12.0615 108.825 12.3989 109.339 12.8237 109.757C13.2443 110.164 13.72 110.47 14.2509 110.675C14.7715 110.885 15.3305 110.982 15.928 110.966C16.5256 110.951 17.1242 110.82 17.7239 110.574C18.3444 110.32 18.8749 109.994 19.3157 109.596C19.7522 109.188 20.0845 108.731 20.3127 108.227C20.5409 107.723 20.6545 107.175 20.6537 106.584C20.6425 105.997 20.5077 105.388 20.2492 104.757C19.8763 103.847 19.3517 103.156 18.6753 102.685C17.999 102.213 17.1164 102.019 16.0277 102.103L16.8222 104.042C17.1 104.013 17.4184 104.112 17.7772 104.339C18.1257 104.571 18.3911 104.909 18.5733 105.353C18.8276 105.974 18.8622 106.515 18.6773 106.977C18.4923 107.44 18.0495 107.832 17.3487 108.156Z" fill="#201D25"/>
<path d="M11.4587 96.55L13.466 96.1592L12.5018 91.2067L10.4944 91.5975L11.4587 96.55Z" fill="#201D25"/>
<path d="M11.2377 77.1708L11.0217 79.7095C11.7557 79.7831 12.4017 79.7035 12.9599 79.4706C13.518 79.2377 13.9896 78.9021 14.3745 78.4638C14.7604 78.0143 15.0573 77.49 15.2653 76.8909C15.4854 76.2815 15.6233 75.6484 15.6792 74.9914C15.7484 74.1786 15.7143 73.4579 15.5771 72.8294C15.4409 72.1898 15.2232 71.6498 14.9242 71.2094C14.615 70.7569 14.2356 70.405 13.786 70.1536C13.3363 69.9023 12.8387 69.7534 12.2931 69.707C11.625 69.6502 11.0671 69.7486 10.6193 70.0021C10.1614 70.2435 9.7878 70.5482 9.49855 70.9161C9.20931 71.2841 8.99196 71.6637 8.84652 72.0551C8.6909 72.4344 8.58134 72.7335 8.51786 72.9524C8.26512 73.6823 8.05762 74.2759 7.89536 74.7331C7.73405 75.1793 7.58079 75.5307 7.43558 75.7875C7.29131 76.0332 7.14302 76.1944 6.99069 76.2712C6.83836 76.348 6.64528 76.3764 6.41146 76.3565C6.15536 76.3347 5.94853 76.2611 5.79098 76.1355C5.63343 76.01 5.50609 75.8589 5.40894 75.6824C5.31275 75.4948 5.25138 75.2933 5.22484 75.078C5.19829 74.8626 5.19401 74.6492 5.21201 74.4376C5.23947 74.1147 5.29241 73.822 5.37081 73.5595C5.45016 73.2859 5.56564 73.049 5.71725 72.8488C5.86886 72.6486 6.06679 72.4972 6.31104 72.3946C6.55623 72.2809 6.85793 72.228 7.21613 72.2361L7.43206 69.6973C6.74171 69.6386 6.14577 69.7225 5.64425 69.949C5.13254 70.1635 4.70186 70.4801 4.3522 70.899C4.00255 71.3179 3.73629 71.8111 3.55343 72.3787C3.36038 72.9343 3.23733 73.5239 3.1843 74.1474C3.13884 74.6819 3.16576 75.2225 3.26505 75.7693C3.36434 76.316 3.54632 76.8138 3.81097 77.2625C4.07561 77.7112 4.42484 78.0885 4.85863 78.3946C5.28224 78.6886 5.80025 78.8616 6.41265 78.9137C6.95826 78.9601 7.43444 78.8997 7.8412 78.7324C8.23777 78.553 8.57832 78.3072 8.86283 77.995C9.14734 77.6827 9.3911 77.3221 9.5941 76.9132C9.78598 76.5033 9.95653 76.0805 10.1058 75.6445C10.2652 75.2207 10.413 74.8015 10.5492 74.3869C10.6854 73.9723 10.8345 73.6037 10.9965 73.281C11.1586 72.9583 11.3483 72.7053 11.5658 72.5219C11.7842 72.3274 12.0549 72.2439 12.3778 72.2713C12.6784 72.2969 12.9223 72.3961 13.1095 72.5691C13.2855 72.7411 13.4192 72.9487 13.5107 73.192C13.6022 73.4353 13.6588 73.6925 13.6806 73.9635C13.6913 74.2336 13.6867 74.4855 13.6668 74.7193C13.6374 75.0645 13.57 75.3952 13.4646 75.7115C13.3481 76.0269 13.1959 76.2999 13.008 76.5307C12.81 76.7493 12.5656 76.9192 12.275 77.0403C11.9843 77.1614 11.6385 77.2048 11.2377 77.1708Z" fill="#201D25"/>
<path d="M11.9884 61.781L12.5378 59.5167C11.9869 59.4175 11.4883 59.4345 11.0421 59.5677C10.5849 59.6983 10.1812 59.9166 9.83099 60.2225C9.47253 60.515 9.17149 60.879 8.92787 61.3143C8.68687 61.7388 8.50577 62.2008 8.38456 62.7004C8.21854 63.3845 8.18501 64.0204 8.28394 64.6078C8.38288 65.1953 8.59388 65.7237 8.91696 66.1931C9.22918 66.6598 9.64393 67.0594 10.1612 67.3919C10.6703 67.7109 11.2506 67.9495 11.9022 68.1076C12.532 68.2604 13.1381 68.2982 13.7203 68.221C14.2916 68.1412 14.8121 67.9627 15.2818 67.6857C15.7515 67.4087 16.1582 67.036 16.5018 66.5674C16.8373 66.0853 17.0815 65.5294 17.2343 64.8995C17.5057 63.7809 17.4352 62.7921 17.0226 61.9331C16.6101 61.074 15.863 60.4328 14.7814 60.0093L14.2399 62.241C14.7427 62.4435 15.1147 62.735 15.3558 63.1155C15.5887 63.4825 15.638 63.9429 15.5036 64.4968C15.4167 64.8552 15.2614 65.1395 15.0379 65.3497C14.8144 65.56 14.5593 65.7108 14.2727 65.8022C13.9778 65.8802 13.665 65.9135 13.3342 65.9023C13.0035 65.891 12.6861 65.8485 12.382 65.7747C12.0671 65.6983 11.76 65.5893 11.4609 65.4477C11.1509 65.3035 10.8841 65.1237 10.6603 64.9085C10.4284 64.6797 10.2612 64.4207 10.1589 64.1314C10.0458 63.8394 10.034 63.5088 10.1236 63.1396C10.3634 62.1514 10.985 61.6985 11.9884 61.781Z" fill="#201D25"/>
<path d="M10.2683 56.7819L18.3706 59.8568L19.2152 57.6315L15.5636 56.2457C15.198 56.1069 14.8723 55.9415 14.5866 55.7494C14.3009 55.5573 14.0749 55.334 13.9085 55.0796C13.7356 54.8108 13.6347 54.5096 13.606 54.176C13.5772 53.8423 13.6401 53.4718 13.7948 53.0643C13.8463 52.9285 13.9103 52.7914 13.9867 52.6531C14.0527 52.5108 14.1159 52.3913 14.1765 52.2948L12.1078 51.5097C11.9882 51.6675 11.9006 51.8195 11.8451 51.9658C11.738 52.2479 11.6767 52.5354 11.6612 52.8283C11.6456 53.1212 11.6726 53.4124 11.7421 53.7017C11.8011 53.987 11.9066 54.2602 12.0586 54.521C12.2002 54.778 12.3765 55.0062 12.5876 55.2059L12.5757 55.2372L11.0712 54.6663L10.2683 56.7819Z" fill="#201D25"/>
<path d="M17.9033 49.623C17.5981 49.4591 17.3137 49.2683 17.0501 49.0505C16.7866 48.8328 16.5786 48.5942 16.4262 48.3347C16.2791 48.0654 16.2001 47.7756 16.1893 47.4653C16.1685 47.1497 16.2534 46.8147 16.4438 46.4603C16.6342 46.106 16.8667 45.8503 17.1413 45.6934C17.4113 45.5213 17.6966 45.4272 17.997 45.411C18.3028 45.385 18.6192 45.4218 18.9462 45.5214C19.2733 45.621 19.5894 45.7528 19.8946 45.9167C20.1997 46.0807 20.4841 46.2715 20.7477 46.4893C21.0014 46.7017 21.2068 46.9452 21.3637 47.2198C21.5161 47.4793 21.595 47.7691 21.6006 48.0892C21.6115 48.3996 21.5218 48.7319 21.3314 49.0863C21.141 49.4407 20.9134 49.699 20.6486 49.8612C20.3839 50.0234 20.0986 50.1175 19.7929 50.1435C19.4826 50.1544 19.1688 50.1127 18.8516 50.0184C18.5246 49.9188 18.2084 49.787 17.9033 49.623ZM16.7767 51.7198C17.3871 52.0478 17.9886 52.2504 18.5813 52.3278C19.174 52.4052 19.7401 52.3669 20.2796 52.2127C20.8092 52.0533 21.2972 51.7826 21.7434 51.4008C22.1895 51.0189 22.574 50.5277 22.8966 49.9272C23.2192 49.3267 23.4166 48.7351 23.4887 48.1522C23.5661 47.5595 23.5251 46.9983 23.3657 46.4687C23.1964 45.9337 22.9159 45.4405 22.5242 44.989C22.1324 44.5376 21.6314 44.1479 21.0211 43.82C20.4108 43.492 19.8092 43.2894 19.2165 43.212C18.614 43.1293 18.0479 43.1676 17.5183 43.3271C16.9788 43.4812 16.4833 43.7541 16.0318 44.1459C15.5757 44.5224 15.1864 45.011 14.8638 45.6115C14.5412 46.212 14.3487 46.8063 14.2864 47.3944C14.2143 47.9773 14.2629 48.5362 14.4322 49.0711C14.5916 49.6008 14.8721 50.094 15.2737 50.5508C15.6654 51.0022 16.1664 51.3919 16.7767 51.7198Z" fill="#201D25"/>
<path d="M16.0545 37.5908L25.8851 44.4172L27.2427 42.4621L17.4121 35.6357L16.0545 37.5908Z" fill="#201D25"/>
<path d="M19.1438 33.2702L28.4778 40.7614L29.9676 38.9051L20.6336 31.4139L19.1438 33.2702Z" fill="#201D25"/>
<path d="M30.84 25.4747L29.0846 23.5592L27.3298 25.1674L29.0851 27.0829L28.0223 28.0568L29.0982 29.2308L30.161 28.2569L33.6151 32.0262C33.9095 32.3475 34.2009 32.5579 34.4892 32.6575C34.7775 32.7571 35.0613 32.7774 35.3407 32.7184C35.6284 32.6518 35.9068 32.5256 36.1759 32.3396C36.4608 32.1543 36.7392 31.937 37.0111 31.6879C37.1841 31.5294 37.3575 31.3629 37.5312 31.1886C37.7049 31.0142 37.8545 30.8468 37.9802 30.6861L36.7345 29.3267C36.6672 29.4187 36.592 29.5104 36.5089 29.6016C36.4258 29.6929 36.3349 29.7839 36.236 29.8745C35.9394 30.1463 35.6964 30.278 35.5069 30.2698C35.3174 30.2615 35.0868 30.1091 34.815 29.8125L31.9158 26.6488L33.2011 25.471L32.1252 24.297L30.84 25.4747Z" fill="#201D25"/>
<path d="M38.1147 25.0118C37.914 24.7294 37.7439 24.4322 37.6043 24.1201C37.4647 23.808 37.3843 23.5019 37.3629 23.2017C37.3506 22.8951 37.4084 22.6004 37.5364 22.3175C37.6579 22.0255 37.8826 21.7629 38.2105 21.5299C38.5384 21.2968 38.8602 21.1709 39.1759 21.1521C39.4943 21.1178 39.7916 21.1601 40.0681 21.2789C40.3536 21.3913 40.6208 21.5647 40.8697 21.7991C41.1186 22.0335 41.3434 22.2919 41.5441 22.5742C41.7448 22.8566 41.9149 23.1538 42.0545 23.4659C42.1876 23.7689 42.2635 24.0783 42.2822 24.394C42.3036 24.6941 42.2458 24.9889 42.1087 25.2783C41.9808 25.5611 41.7528 25.8191 41.4249 26.0522C41.097 26.2853 40.7784 26.4157 40.4692 26.4436C40.16 26.4715 39.8626 26.4292 39.577 26.3168C39.2941 26.1889 39.0315 26.0122 38.7891 25.7869C38.5402 25.5525 38.3154 25.2941 38.1147 25.0118ZM36.1746 26.3908C36.576 26.9555 37.0251 27.4041 37.5219 27.7365C38.0186 28.0689 38.543 28.2858 39.0948 28.3871C39.6402 28.4793 40.1976 28.4533 40.7669 28.3091C41.3362 28.1649 41.8987 27.8954 42.4543 27.5004C43.0099 27.1055 43.4494 26.6629 43.7727 26.1726C44.1051 25.6758 44.3174 25.1548 44.4096 24.6094C44.4953 24.0549 44.4629 23.4884 44.3122 22.91C44.1616 22.3315 43.8855 21.76 43.4841 21.1952C43.0827 20.6305 42.6337 20.182 42.1369 19.8495C41.6336 19.508 41.1093 19.2912 40.5639 19.199C40.0121 19.0977 39.4469 19.1223 38.8685 19.273C38.2927 19.408 37.727 19.673 37.1714 20.068C36.6158 20.4629 36.1795 20.9101 35.8627 21.4095C35.5394 21.8998 35.3349 22.4221 35.2492 22.9766C35.157 23.522 35.1894 24.0885 35.3466 24.676C35.4972 25.2545 35.7732 25.8261 36.1746 26.3908Z" fill="#201D25"/>
<path d="M54.7963 15.5723C54.9344 15.9021 55.0372 16.2346 55.1048 16.5698C55.1724 16.9049 55.1858 17.2264 55.1451 17.5342C55.1 17.8317 54.984 18.1044 54.797 18.3522C54.6203 18.5958 54.3515 18.7931 53.9908 18.9441C53.6506 19.0865 53.3266 19.1373 53.0188 19.0965C52.717 19.0411 52.434 18.9294 52.1698 18.7614C51.9116 18.5787 51.6817 18.3478 51.4801 18.0688C51.2785 17.7897 51.113 17.4956 50.9836 17.1863C50.8455 16.8565 50.7448 16.5291 50.6815 16.2043C50.6243 15.8648 50.6182 15.5464 50.6632 15.2489C50.7186 14.947 50.8398 14.6722 51.0268 14.4243C51.2138 14.1765 51.4877 13.977 51.8485 13.826C52.2093 13.675 52.5384 13.622 52.8359 13.6671C53.1334 13.7122 53.4039 13.8231 53.6475 13.9997C53.8971 14.1618 54.1175 14.3845 54.3088 14.6679C54.4957 14.9409 54.6583 15.2424 54.7963 15.5723ZM56.0829 18.559L56.51 19.5796L58.5975 18.7058L53.9764 7.6656L51.7807 8.58464L53.4634 12.6049L53.4325 12.6178C53.0212 12.3297 52.558 12.1783 52.0431 12.1636C51.5341 12.1344 51.0426 12.219 50.5684 12.4175C49.9808 12.6634 49.515 12.9977 49.171 13.4203C48.8227 13.8326 48.5789 14.292 48.4396 14.7986C48.3106 15.3008 48.2745 15.8368 48.3313 16.4067C48.3941 16.9619 48.5376 17.5075 48.762 18.0435C48.995 18.6002 49.2915 19.106 49.6516 19.561C50.0219 20.0117 50.4356 20.3777 50.8925 20.6589C51.3554 20.9255 51.8632 21.0824 52.416 21.1296C52.9645 21.1666 53.5377 21.0599 54.1356 20.8096C54.6613 20.5896 55.0915 20.3005 55.4262 19.9424C55.7669 19.5696 55.9754 19.1128 56.0519 18.572L56.0829 18.559Z" fill="#201D25"/>
<path d="M59.8587 7.92573L59.31 6.04287L57.0248 6.70886L57.5735 8.59173L59.8587 7.92573ZM57.9488 9.87915L60.3735 18.1992L62.6587 17.5332L60.2339 9.21316L57.9488 9.87915Z" fill="#201D25"/>
<path d="M65.8055 13.8103L63.5779 14.2088C63.7022 14.7768 63.9143 15.2327 64.2142 15.5764C64.5231 15.9071 64.8797 16.1555 65.2841 16.3216C65.6994 16.4857 66.1524 16.575 66.6432 16.5894C67.1339 16.6038 67.6267 16.5667 68.1218 16.4781C68.6058 16.3916 69.0699 16.2574 69.5142 16.0758C69.9715 15.9032 70.361 15.6689 70.6827 15.373C71.0044 15.077 71.2418 14.7224 71.3949 14.309C71.557 13.8827 71.5879 13.389 71.4876 12.828C71.4167 12.432 71.2807 12.1157 71.0795 11.8793C70.8763 11.6318 70.6324 11.4427 70.3479 11.312C70.0615 11.1702 69.7434 11.0739 69.3937 11.0229C69.055 10.9699 68.7083 10.9355 68.3535 10.9195C68.0097 10.9015 67.6724 10.888 67.3416 10.8791C67.0108 10.8702 66.712 10.8498 66.4452 10.8181C66.1875 10.7734 65.9698 10.6988 65.7922 10.5943C65.6146 10.4899 65.5071 10.3331 65.4697 10.1241C65.4382 9.94811 65.4576 9.80274 65.5279 9.68799C65.5962 9.56225 65.686 9.46105 65.7971 9.38441C65.9193 9.30579 66.0564 9.24721 66.2084 9.20867C66.3585 9.15912 66.4995 9.12254 66.6315 9.09893C67.0496 9.02416 67.4273 9.04173 67.7649 9.15164C68.1004 9.25055 68.325 9.52256 68.4387 9.96767L70.6663 9.56922C70.5278 9.04907 70.3126 8.63916 70.0206 8.33947C69.7376 8.02681 69.4069 7.79648 69.0285 7.64847C68.6501 7.50046 68.2331 7.42181 67.7773 7.41251C67.3326 7.40124 66.8792 7.43693 66.4172 7.51957C65.9551 7.60222 65.512 7.72689 65.0877 7.8936C64.6615 8.04931 64.2911 8.26315 63.9764 8.53512C63.6598 8.79609 63.423 9.12226 63.266 9.51362C63.1199 9.90301 63.0961 10.3727 63.1945 10.9227C63.2614 11.2967 63.3955 11.602 63.5967 11.8384C63.7959 12.0639 64.0378 12.242 64.3223 12.3728C64.6048 12.4925 64.9154 12.5789 65.2541 12.6318C65.6018 12.6718 65.9531 12.6998 66.3079 12.7158C67.1754 12.7422 67.8559 12.8021 68.3494 12.8955C68.8539 12.9869 69.1376 13.2086 69.2006 13.5606C69.238 13.7696 69.2199 13.9545 69.1465 14.1152C69.0711 14.2649 68.9643 14.3975 68.826 14.5131C68.6968 14.6157 68.5426 14.7057 68.3635 14.7831C68.1934 14.8476 68.0258 14.8946 67.8608 14.9241C67.6298 14.9655 67.3994 14.9783 67.1695 14.9626C66.9507 14.945 66.7489 14.896 66.5643 14.8155C66.3776 14.724 66.2135 14.6001 66.0721 14.4438C65.9396 14.2745 65.8507 14.0633 65.8055 13.8103Z" fill="#201D25"/>
<path d="M79.4691 9.50002L81.7977 9.4191C81.7448 8.86186 81.5941 8.38629 81.3456 7.99238C81.0967 7.58731 80.7777 7.25735 80.3887 7.00251C80.0104 6.73611 79.5789 6.54425 79.094 6.42692C78.6203 6.3092 78.1265 6.25927 77.6128 6.27712C76.9092 6.30157 76.2879 6.44056 75.7488 6.69411C75.2097 6.94766 74.7576 7.29323 74.3927 7.73081C74.0273 8.15723 73.7542 8.6643 73.5734 9.25204C73.4033 9.82821 73.3299 10.4513 73.3532 11.1214C73.3757 11.7692 73.5026 12.363 73.7338 12.9029C73.9646 13.4316 74.2767 13.8848 74.67 14.2625C75.0633 14.6401 75.5318 14.9314 76.0757 15.1361C76.6303 15.3293 77.2315 15.4146 77.8792 15.3921C79.0295 15.3521 79.9628 15.0178 80.6789 14.3891C81.3951 13.7604 81.8113 12.8682 81.9277 11.7124L79.6326 11.7922C79.5731 12.331 79.3926 12.7677 79.0911 13.1025C78.8005 13.4257 78.3703 13.5971 77.8008 13.6169C77.4322 13.6297 77.1166 13.5569 76.8539 13.3983C76.5912 13.2397 76.3772 13.0346 76.2119 12.7832C76.0574 12.5202 75.9411 12.2279 75.8628 11.9064C75.7845 11.5848 75.74 11.2677 75.7291 10.955C75.7178 10.6311 75.7401 10.3061 75.7959 9.97989C75.8512 9.64251 75.9524 9.33709 76.0995 9.06362C76.2573 8.7786 76.4617 8.54786 76.7128 8.37141C76.9634 8.18379 77.2786 8.08339 77.6583 8.07019C78.6746 8.03488 79.2782 8.51149 79.4691 9.50002Z" fill="#201D25"/>
<path d="M85.4198 10.9453C85.4585 10.601 85.5298 10.266 85.6338 9.94035C85.7379 9.61468 85.882 9.33286 86.0661 9.09489C86.2614 8.85817 86.501 8.67703 86.7849 8.55148C87.0702 8.41482 87.4127 8.36893 87.8125 8.41381C88.2122 8.45868 88.5361 8.57937 88.7839 8.77587C89.0441 8.9625 89.2375 9.19226 89.3643 9.46513C89.5022 9.73925 89.5858 10.0466 89.6151 10.3873C89.6443 10.7279 89.6396 11.0703 89.6009 11.4146C89.5623 11.7589 89.491 12.0938 89.3869 12.4195C89.2841 12.7341 89.1345 13.0153 88.938 13.2631C88.7539 13.5011 88.5142 13.6822 88.2192 13.8065C87.9352 13.9321 87.5933 13.9724 87.1935 13.9275C86.7937 13.8826 86.4693 13.7675 86.2202 13.5821C85.9712 13.3967 85.7777 13.167 85.6398 12.8929C85.5142 12.6089 85.4362 12.3021 85.4057 11.9726C85.3765 11.632 85.3812 11.2895 85.4198 10.9453ZM83.0544 10.6797C82.9771 11.3683 83.0128 12.002 83.1615 12.5809C83.3102 13.1599 83.5564 13.6711 83.9002 14.1145C84.2453 14.5468 84.678 14.899 85.1985 15.1711C85.719 15.4431 86.3179 15.6172 86.9953 15.6932C87.6727 15.7693 88.2954 15.7324 88.8632 15.5824C89.4421 15.4338 89.9478 15.1869 90.3801 14.8419C90.8136 14.4857 91.1671 14.0418 91.4404 13.5103C91.7137 12.9787 91.889 12.3686 91.9663 11.6801C92.0436 10.9916 92.0079 10.3579 91.8593 9.77893C91.7118 9.18888 91.4656 8.6777 91.1206 8.24539C90.7768 7.80197 90.3391 7.4436 89.8075 7.17027C89.2883 6.88708 88.69 6.70747 88.0125 6.63143C87.3351 6.55538 86.7119 6.59787 86.1428 6.75889C85.5749 6.90881 85.0743 7.16184 84.6407 7.518C84.2084 7.86305 83.8549 8.30691 83.5804 8.84959C83.307 9.38116 83.1317 9.99121 83.0544 10.6797Z" fill="#201D25"/>
<path d="M97.4095 17.4124L102.421 9.75764L100.133 9.16546L96.8812 14.4361L96.8488 14.4277L96.5625 8.24149L94.1446 7.61571L94.8455 16.7488L97.4095 17.4124Z" fill="#201D25"/>
<path d="M108.679 15.8319L105.101 14.3502C105.176 14.1996 105.279 14.0369 105.412 13.8622C105.555 13.6916 105.73 13.5464 105.937 13.4265C106.155 13.3109 106.4 13.2433 106.674 13.2238C106.963 13.1983 107.283 13.2582 107.634 13.4036C108.171 13.6259 108.509 13.9351 108.647 14.3311C108.796 14.7314 108.806 15.2316 108.679 15.8319ZM104.524 15.744L110.3 18.1365C110.598 17.5342 110.792 16.9191 110.883 16.2914C110.974 15.6637 110.946 15.0595 110.799 14.4787C110.663 13.9022 110.396 13.3801 109.997 12.9125C109.602 12.4345 109.064 12.0544 108.382 11.7722C107.773 11.5199 107.171 11.3974 106.575 11.4046C105.99 11.4162 105.437 11.5381 104.918 11.7705C104.402 11.9925 103.94 12.321 103.53 12.756C103.12 13.1909 102.791 13.7078 102.543 14.3066C102.286 14.9261 102.144 15.5324 102.116 16.1256C102.098 16.7231 102.188 17.2803 102.385 17.7974C102.582 18.3145 102.891 18.781 103.311 19.1971C103.736 19.6027 104.263 19.936 104.893 20.1969C105.802 20.5732 106.661 20.6874 107.473 20.5395C108.284 20.3917 109.043 19.9018 109.75 19.0699L107.815 18.2682C107.64 18.486 107.345 18.6422 106.931 18.7368C106.521 18.821 106.094 18.7712 105.65 18.5874C105.031 18.3308 104.622 17.9741 104.424 17.5172C104.227 17.0603 104.26 16.4692 104.524 15.744Z" fill="#201D25"/>
<path d="M113.904 14.5124L109.635 22.0538L111.706 23.2265L113.63 19.8278C113.823 19.4874 114.036 19.1907 114.269 18.9375C114.503 18.6843 114.758 18.4947 115.034 18.3689C115.326 18.2388 115.639 18.1849 115.973 18.2071C116.307 18.2294 116.664 18.3478 117.043 18.5626C117.17 18.6341 117.296 18.7182 117.421 18.8147C117.551 18.9015 117.66 18.9822 117.746 19.0567L118.836 17.1312C118.698 16.989 118.561 16.8793 118.425 16.8023C118.163 16.6536 117.888 16.5494 117.601 16.4895C117.314 16.4297 117.022 16.4121 116.725 16.4369C116.434 16.4519 116.148 16.5147 115.867 16.6253C115.592 16.7262 115.339 16.8658 115.11 17.0442L115.081 17.0277L115.874 15.6273L113.904 14.5124Z" fill="#201D25"/>
<path d="M125.203 21.3259L119.301 27.6723L121.045 29.2932L124.469 25.6105C124.758 25.2995 125.035 25.0918 125.3 24.9873C125.573 24.8746 125.816 24.8262 126.03 24.8421C126.26 24.8575 126.456 24.9097 126.617 24.9987C126.794 25.0871 126.924 25.1694 127.006 25.2455C127.284 25.5042 127.447 25.7474 127.495 25.9749C127.558 26.2019 127.546 26.4198 127.459 26.6286C127.38 26.8449 127.257 27.051 127.09 27.2469C126.931 27.4345 126.764 27.6225 126.589 27.8107L123.279 31.3706L125.022 32.9914L128.309 29.4561C128.492 29.2597 128.683 29.0788 128.882 28.9134C129.098 28.7474 129.315 28.6288 129.534 28.5576C129.768 28.4858 130.001 28.4734 130.232 28.5204C130.479 28.5667 130.725 28.7041 130.971 28.9324C131.216 29.1606 131.37 29.3804 131.433 29.5916C131.505 29.8104 131.512 30.0236 131.457 30.2312C131.401 30.4388 131.294 30.6443 131.135 30.8478C130.976 31.0512 130.798 31.2593 130.6 31.4721L127.256 35.0689L128.999 36.6897L132.948 32.4424C133.329 32.0332 133.595 31.6321 133.747 31.2391C133.906 30.838 133.967 30.4523 133.93 30.082C133.893 29.7117 133.769 29.3525 133.559 29.0043C133.349 28.6561 133.076 28.3261 132.74 28.0141C132.298 27.6031 131.815 27.3519 131.289 27.2603C130.772 27.1763 130.29 27.1859 129.843 27.2891C130.037 26.7365 130.038 26.2264 129.847 25.759C129.664 25.2991 129.372 24.8827 128.971 24.5098C128.554 24.1218 128.098 23.8655 127.603 23.7412C127.117 23.6245 126.607 23.6232 126.073 23.7375L126.049 23.7147L126.848 22.8554L125.203 21.3259Z" fill="#201D25"/>
<path d="M134.774 37.2213C135.054 37.0165 135.349 36.842 135.659 36.6979C135.969 36.5538 136.274 36.4688 136.573 36.443C136.88 36.4263 137.175 36.4798 137.46 36.6036C137.754 36.7208 138.02 36.9417 138.257 37.2661C138.495 37.5906 138.626 37.9105 138.649 38.2259C138.688 38.5438 138.65 38.8417 138.535 39.1199C138.427 39.407 138.258 39.6767 138.027 39.929C137.796 40.1813 137.541 40.4098 137.262 40.6146C136.982 40.8194 136.688 40.9939 136.378 41.138C136.077 41.2755 135.768 41.3559 135.453 41.3793C135.153 41.4051 134.858 41.3516 134.566 41.2187C134.282 41.0949 134.02 40.8708 133.783 40.5463C133.545 40.2218 133.41 39.9052 133.377 39.5964C133.345 39.2876 133.383 38.9896 133.491 38.7025C133.615 38.4178 133.788 38.1526 134.009 37.9069C134.24 37.6546 134.495 37.4261 134.774 37.2213ZM133.367 35.3015C132.808 35.7111 132.366 36.1667 132.041 36.6683C131.716 37.1699 131.507 37.6973 131.414 38.2506C131.33 38.7973 131.364 39.3542 131.516 39.9213C131.669 40.4885 131.946 41.047 132.349 41.5968C132.752 42.1465 133.201 42.5795 133.696 42.8956C134.198 43.2207 134.722 43.4254 135.269 43.5096C135.824 43.5872 136.39 43.5465 136.967 43.3874C137.543 43.2283 138.11 42.944 138.669 42.5343C139.228 42.1247 139.67 41.6691 139.995 41.1676C140.329 40.6594 140.538 40.132 140.622 39.5853C140.716 39.032 140.683 38.4673 140.524 37.8911C140.38 37.3173 140.107 36.7556 139.704 36.2058C139.301 35.656 138.847 35.2263 138.343 34.9168C137.849 34.6007 137.323 34.4039 136.767 34.3263C136.221 34.2421 135.655 34.2828 135.07 34.4485C134.494 34.6076 133.926 34.8919 133.367 35.3015Z" fill="#201D25"/>
<path d="M143.418 42.0609L135.829 46.2468L136.979 48.331L140.399 46.4445C140.741 46.2556 141.078 46.1144 141.41 46.021C141.741 45.9275 142.057 45.8997 142.359 45.9375C142.676 45.9797 142.971 46.0978 143.244 46.2919C143.517 46.4859 143.758 46.7737 143.969 47.1553C144.039 47.2825 144.102 47.42 144.158 47.5678C144.224 47.7102 144.274 47.8357 144.308 47.9443L146.246 46.8756C146.203 46.6823 146.144 46.5171 146.068 46.3801C145.922 46.1159 145.743 45.8831 145.53 45.6817C145.317 45.4802 145.077 45.3123 144.812 45.178C144.556 45.0383 144.279 44.942 143.982 44.889C143.695 44.8306 143.407 44.8173 143.118 44.849L143.102 44.8196L144.511 44.0423L143.418 42.0609Z" fill="#201D25"/>
<path d="M146.132 55.5253L144.69 51.9315C144.85 51.8794 145.039 51.8398 145.257 51.8126C145.479 51.7958 145.705 51.8195 145.935 51.8836C146.17 51.9581 146.39 52.0865 146.596 52.2689C146.816 52.4576 146.997 52.7282 147.138 53.0809C147.354 53.6202 147.369 54.0777 147.183 54.4535C147.001 54.8397 146.65 55.1969 146.132 55.5253ZM143.29 52.4931L145.618 58.2961C146.257 58.0879 146.832 57.7969 147.345 57.4229C147.857 57.0489 148.269 56.6065 148.582 56.0957C148.899 55.5953 149.085 55.039 149.141 54.4268C149.207 53.8104 149.102 53.1599 148.828 52.4754C148.582 51.8635 148.249 51.3471 147.827 50.9262C147.41 50.5157 146.936 50.2059 146.407 49.9969C145.888 49.7836 145.33 49.6825 144.732 49.6934C144.134 49.7043 143.535 49.8305 142.933 50.0717C142.311 50.3213 141.778 50.6435 141.334 51.0382C140.895 51.4433 140.559 51.897 140.327 52.3994C140.095 52.9018 139.977 53.4487 139.974 54.0401C139.98 54.6274 140.111 55.2373 140.364 55.87C140.73 56.7827 141.25 57.4774 141.923 57.954C142.595 58.4307 143.477 58.6311 144.566 58.5554L143.786 56.6107C143.508 56.6379 143.19 56.5366 142.833 56.3066C142.486 56.0724 142.224 55.7323 142.045 55.2863C141.795 54.664 141.764 54.1225 141.953 53.6616C142.141 53.2007 142.587 52.8112 143.29 52.4931Z" fill="#201D25"/>
<path d="M149.151 64.2635L147.141 64.6389L148.067 69.5987L150.077 69.2232L149.151 64.2635Z" fill="#201D25"/>
</svg>
