<svg width="648" height="841" viewBox="0 0 648 841" fill="none" xmlns="http://www.w3.org/2000/svg">
<rect x="15.5" y="494.312" width="55.2036" height="83.3054" stroke="#201D25"/>
<path d="M15.5127 497.324H12V580.927H67.501V577.414" stroke="#201D25"/>
<rect x="348.5" y="494.312" width="55.2036" height="83.3054" stroke="#201D25"/>
<path d="M348.513 497.324H345V580.927H400.501V577.414" stroke="#201D25"/>
<rect x="92.5" y="494.312" width="55.2036" height="83.3054" stroke="#201D25"/>
<path d="M92.5127 497.324H89V580.927H144.501V577.414" stroke="#201D25"/>
<rect x="425.5" y="494.312" width="55.2036" height="83.3054" stroke="#201D25"/>
<path d="M425.513 497.324H422V580.927H477.501V577.414" stroke="#201D25"/>
<rect x="169.5" y="494.312" width="55.2036" height="83.3054" stroke="#201D25"/>
<path d="M169.513 497.324H166V580.927H221.501V577.414" stroke="#201D25"/>
<rect x="502.5" y="494.312" width="55.2036" height="83.3054" stroke="#201D25"/>
<path d="M502.513 497.324H499V580.927H554.501V577.414" stroke="#201D25"/>
<rect x="246.5" y="494.312" width="55.2036" height="83.3054" stroke="#201D25"/>
<path d="M246.513 497.324H243V580.927H298.501V577.414" stroke="#201D25"/>
<rect x="579.5" y="494.312" width="55.2036" height="83.3054" stroke="#201D25"/>
<path d="M579.513 497.324H576V580.927H631.501V577.414" stroke="#201D25"/>
<rect x="293.311" y="81.5" width="76.02" height="83.3054" stroke="#201D25"/>
<path d="M293.79 84.5117H290V168.115H366.327V164.602" stroke="#201D25"/>
<rect x="124.646" y="218.949" width="76.0243" height="83.3054" stroke="#201D25"/>
<path d="M125.125 221.961H121.336V305.564H197.663V302.051" stroke="#201D25"/>
<rect x="458.9" y="218.949" width="76.0243" height="83.3054" stroke="#201D25"/>
<path d="M459.379 221.961H455.59V305.564H531.916V302.051" stroke="#201D25"/>
<rect x="43.5" y="356.4" width="76.0243" height="83.3054" stroke="#201D25"/>
<path d="M43.9047 359.412H40.1152V443.015H116.442V439.502" stroke="#201D25"/>
<rect x="377.68" y="356.4" width="76.0243" height="83.3054" stroke="#201D25"/>
<path d="M378.159 359.412H374.369V443.015H450.696V439.502" stroke="#201D25"/>
<rect x="195.454" y="356.4" width="76.0243" height="83.3054" stroke="#201D25"/>
<path d="M195.933 359.412H192.144V443.015H268.47V439.502" stroke="#201D25"/>
<rect x="529.708" y="356.4" width="76.0243" height="83.3054" stroke="#201D25"/>
<path d="M530.187 359.412H526.397V443.015H602.724V439.502" stroke="#201D25"/>
<path d="M40 493.812V468.812H116V493.812" stroke="black"/>
<path d="M374 493.812V468.812H450V493.812" stroke="black"/>
<path d="M79 355.812V330.812H236V355.812" stroke="black"/>
<path d="M413 355.812V330.812H570V355.812" stroke="black"/>
<path d="M163 218.812V193.812H497V218.812" stroke="black"/>
<path d="M193 494.812V468.812H269V494.812" stroke="black"/>
<path d="M527 494.812V468.812H603V494.812" stroke="black"/>
<line x1="80.5" y1="468.813" x2="80.5" y2="443.812" stroke="black"/>
<line x1="414.5" y1="468.813" x2="414.5" y2="443.812" stroke="black"/>
<line x1="235.5" y1="468.813" x2="235.5" y2="443.812" stroke="black"/>
<line x1="569.5" y1="468.813" x2="569.5" y2="443.812" stroke="black"/>
<line x1="162.5" y1="330.813" x2="162.5" y2="305.812" stroke="black"/>
<line x1="496.5" y1="330.813" x2="496.5" y2="305.812" stroke="black"/>
<line x1="329.5" y1="193.813" x2="329.5" y2="168.812" stroke="black"/>
<path d="M42.9648 553.813C36.3216 553.813 33 552.413 33 550.079C33 548.276 37.1341 535.291 39.411 528.382C39.5648 527.915 39.6432 527.43 39.6432 526.94V520.679C39.6432 520.132 39.3175 519.906 39.0478 519.718C38.857 519.586 38.6942 519.472 38.6942 519.279C38.6942 518.812 42.0158 518.812 42.9648 518.812C43.9138 518.812 47.3058 518.812 47.3058 519.279C47.3058 519.472 47.143 519.586 46.9522 519.718C46.6825 519.906 46.3568 520.132 46.3568 520.679V526.94C46.3568 527.43 46.4352 527.915 46.589 528.382C48.8659 535.291 53 548.276 53 550.079C53 552.413 49.608 553.813 42.9648 553.813Z" stroke="#201D25"/>
<path fill-rule="evenodd" clip-rule="evenodd" d="M42.9706 551.92C37.7402 551.92 35.125 550.501 35.125 549.435C35.125 548.395 36.4057 543.313 37.8028 538.102C39.4458 537.861 41.1903 537.73 42.9981 537.73C44.8061 537.73 46.5508 537.861 48.1939 538.103C49.5911 543.314 50.8717 548.395 50.8717 549.435C50.8717 550.501 48.201 551.92 42.9706 551.92ZM45.4992 544.812C44.6708 544.812 43.9992 545.483 43.9992 546.312C43.9992 547.14 44.6708 547.812 45.4992 547.812C46.3276 547.812 46.9992 547.14 46.9992 546.312C46.9992 545.483 46.3276 544.812 45.4992 544.812ZM42.9992 549.312C42.9992 549.036 43.2231 548.812 43.4992 548.812C43.7753 548.812 43.9992 549.036 43.9992 549.312C43.9992 549.588 43.7753 549.812 43.4992 549.812C43.2231 549.812 42.9992 549.588 42.9992 549.312ZM41.0002 542.812C41.5525 542.812 42.0002 542.364 42.0002 541.812C42.0002 541.259 41.5525 540.812 41.0002 540.812C40.4479 540.812 40.0002 541.259 40.0002 541.812C40.0002 542.364 40.4479 542.812 41.0002 542.812Z" fill="#201D25"/>
<circle cx="44" cy="535.812" r="1" fill="#201D25"/>
<path d="M48.665 541.936L46.358 532.875" stroke="#201D25"/>
<path d="M375.965 553.813C369.322 553.813 366 552.413 366 550.079C366 548.276 370.134 535.291 372.411 528.382C372.565 527.915 372.643 527.43 372.643 526.94V520.679C372.643 520.132 372.318 519.906 372.048 519.718C371.857 519.586 371.694 519.472 371.694 519.279C371.694 518.812 375.016 518.812 375.965 518.812C376.914 518.812 380.306 518.812 380.306 519.279C380.306 519.472 380.143 519.586 379.952 519.718C379.682 519.906 379.357 520.132 379.357 520.679V526.94C379.357 527.43 379.435 527.915 379.589 528.382C381.866 535.291 386 548.276 386 550.079C386 552.413 382.608 553.813 375.965 553.813Z" stroke="#201D25"/>
<path fill-rule="evenodd" clip-rule="evenodd" d="M375.971 551.92C370.74 551.92 368.125 550.501 368.125 549.435C368.125 548.395 369.406 543.313 370.803 538.102C372.446 537.861 374.19 537.73 375.998 537.73C377.806 537.73 379.551 537.861 381.194 538.103C382.591 543.314 383.872 548.395 383.872 549.435C383.872 550.501 381.201 551.92 375.971 551.92ZM378.499 544.812C377.671 544.812 376.999 545.483 376.999 546.312C376.999 547.14 377.671 547.812 378.499 547.812C379.328 547.812 379.999 547.14 379.999 546.312C379.999 545.483 379.328 544.812 378.499 544.812ZM375.999 549.312C375.999 549.036 376.223 548.812 376.499 548.812C376.775 548.812 376.999 549.036 376.999 549.312C376.999 549.588 376.775 549.812 376.499 549.812C376.223 549.812 375.999 549.588 375.999 549.312ZM374 542.812C374.552 542.812 375 542.364 375 541.812C375 541.259 374.552 540.812 374 540.812C373.448 540.812 373 541.259 373 541.812C373 542.364 373.448 542.812 374 542.812Z" fill="#201D25"/>
<circle cx="377" cy="535.812" r="1" fill="#201D25"/>
<path d="M381.665 541.936L379.358 532.875" stroke="#201D25"/>
<path d="M119.965 553.813C113.322 553.813 110 552.413 110 550.079C110 548.276 114.134 535.291 116.411 528.382C116.565 527.915 116.643 527.43 116.643 526.94V520.679C116.643 520.132 116.318 519.906 116.048 519.718C115.857 519.586 115.694 519.472 115.694 519.279C115.694 518.812 119.016 518.812 119.965 518.812C120.914 518.812 124.306 518.812 124.306 519.279C124.306 519.472 124.143 519.586 123.952 519.718C123.682 519.906 123.357 520.132 123.357 520.679V526.94C123.357 527.43 123.435 527.915 123.589 528.382C125.866 535.291 130 548.276 130 550.079C130 552.413 126.608 553.813 119.965 553.813Z" stroke="#201D25"/>
<path fill-rule="evenodd" clip-rule="evenodd" d="M119.971 551.92C114.74 551.92 112.125 550.501 112.125 549.435C112.125 548.395 113.406 543.313 114.803 538.102C116.446 537.861 118.19 537.73 119.998 537.73C121.806 537.73 123.551 537.861 125.194 538.103C126.591 543.314 127.872 548.395 127.872 549.435C127.872 550.501 125.201 551.92 119.971 551.92ZM122.499 544.812C121.671 544.812 120.999 545.483 120.999 546.312C120.999 547.14 121.671 547.812 122.499 547.812C123.328 547.812 123.999 547.14 123.999 546.312C123.999 545.483 123.328 544.812 122.499 544.812ZM119.999 549.312C119.999 549.036 120.223 548.812 120.499 548.812C120.775 548.812 120.999 549.036 120.999 549.312C120.999 549.588 120.775 549.812 120.499 549.812C120.223 549.812 119.999 549.588 119.999 549.312ZM118 542.812C118.552 542.812 119 542.364 119 541.812C119 541.259 118.552 540.812 118 540.812C117.448 540.812 117 541.259 117 541.812C117 542.364 117.448 542.812 118 542.812Z" fill="#201D25"/>
<circle cx="121" cy="535.812" r="1" fill="#201D25"/>
<path d="M125.665 541.936L123.358 532.875" stroke="#201D25"/>
<path d="M452.965 553.813C446.322 553.813 443 552.413 443 550.079C443 548.276 447.134 535.291 449.411 528.382C449.565 527.915 449.643 527.43 449.643 526.94V520.679C449.643 520.132 449.318 519.906 449.048 519.718C448.857 519.586 448.694 519.472 448.694 519.279C448.694 518.812 452.016 518.812 452.965 518.812C453.914 518.812 457.306 518.812 457.306 519.279C457.306 519.472 457.143 519.586 456.952 519.718C456.682 519.906 456.357 520.132 456.357 520.679V526.94C456.357 527.43 456.435 527.915 456.589 528.382C458.866 535.291 463 548.276 463 550.079C463 552.413 459.608 553.813 452.965 553.813Z" stroke="#201D25"/>
<path fill-rule="evenodd" clip-rule="evenodd" d="M452.971 551.92C447.74 551.92 445.125 550.501 445.125 549.435C445.125 548.395 446.406 543.313 447.803 538.102C449.446 537.861 451.19 537.73 452.998 537.73C454.806 537.73 456.551 537.861 458.194 538.103C459.591 543.314 460.872 548.395 460.872 549.435C460.872 550.501 458.201 551.92 452.971 551.92ZM455.499 544.812C454.671 544.812 453.999 545.483 453.999 546.312C453.999 547.14 454.671 547.812 455.499 547.812C456.328 547.812 456.999 547.14 456.999 546.312C456.999 545.483 456.328 544.812 455.499 544.812ZM452.999 549.312C452.999 549.036 453.223 548.812 453.499 548.812C453.775 548.812 453.999 549.036 453.999 549.312C453.999 549.588 453.775 549.812 453.499 549.812C453.223 549.812 452.999 549.588 452.999 549.312ZM451 542.812C451.552 542.812 452 542.364 452 541.812C452 541.259 451.552 540.812 451 540.812C450.448 540.812 450 541.259 450 541.812C450 542.364 450.448 542.812 451 542.812Z" fill="#201D25"/>
<circle cx="454" cy="535.812" r="1" fill="#201D25"/>
<path d="M458.665 541.936L456.358 532.875" stroke="#201D25"/>
<path d="M196.965 553.813C190.322 553.813 187 552.413 187 550.079C187 548.276 191.134 535.291 193.411 528.382C193.565 527.915 193.643 527.43 193.643 526.94V520.679C193.643 520.132 193.318 519.906 193.048 519.718C192.857 519.586 192.694 519.472 192.694 519.279C192.694 518.812 196.016 518.812 196.965 518.812C197.914 518.812 201.306 518.812 201.306 519.279C201.306 519.472 201.143 519.586 200.952 519.718C200.682 519.906 200.357 520.132 200.357 520.679V526.94C200.357 527.43 200.435 527.915 200.589 528.382C202.866 535.291 207 548.276 207 550.079C207 552.413 203.608 553.813 196.965 553.813Z" stroke="#201D25"/>
<path fill-rule="evenodd" clip-rule="evenodd" d="M196.971 551.92C191.74 551.92 189.125 550.501 189.125 549.435C189.125 548.395 190.406 543.313 191.803 538.102C193.446 537.861 195.19 537.73 196.998 537.73C198.806 537.73 200.551 537.861 202.194 538.103C203.591 543.314 204.872 548.395 204.872 549.435C204.872 550.501 202.201 551.92 196.971 551.92ZM199.499 544.812C198.671 544.812 197.999 545.483 197.999 546.312C197.999 547.14 198.671 547.812 199.499 547.812C200.328 547.812 200.999 547.14 200.999 546.312C200.999 545.483 200.328 544.812 199.499 544.812ZM196.999 549.312C196.999 549.036 197.223 548.812 197.499 548.812C197.775 548.812 197.999 549.036 197.999 549.312C197.999 549.588 197.775 549.812 197.499 549.812C197.223 549.812 196.999 549.588 196.999 549.312ZM195 542.812C195.552 542.812 196 542.364 196 541.812C196 541.259 195.552 540.812 195 540.812C194.448 540.812 194 541.259 194 541.812C194 542.364 194.448 542.812 195 542.812Z" fill="#201D25"/>
<circle cx="198" cy="535.812" r="1" fill="#201D25"/>
<path d="M202.665 541.936L200.358 532.875" stroke="#201D25"/>
<path d="M529.965 553.813C523.322 553.813 520 552.413 520 550.079C520 548.276 524.134 535.291 526.411 528.382C526.565 527.915 526.643 527.43 526.643 526.94V520.679C526.643 520.132 526.318 519.906 526.048 519.718C525.857 519.586 525.694 519.472 525.694 519.279C525.694 518.812 529.016 518.812 529.965 518.812C530.914 518.812 534.306 518.812 534.306 519.279C534.306 519.472 534.143 519.586 533.952 519.718C533.682 519.906 533.357 520.132 533.357 520.679V526.94C533.357 527.43 533.435 527.915 533.589 528.382C535.866 535.291 540 548.276 540 550.079C540 552.413 536.608 553.813 529.965 553.813Z" stroke="#201D25"/>
<path fill-rule="evenodd" clip-rule="evenodd" d="M529.971 551.92C524.74 551.92 522.125 550.501 522.125 549.435C522.125 548.395 523.406 543.313 524.803 538.102C526.446 537.861 528.19 537.73 529.998 537.73C531.806 537.73 533.551 537.861 535.194 538.103C536.591 543.314 537.872 548.395 537.872 549.435C537.872 550.501 535.201 551.92 529.971 551.92ZM532.499 544.812C531.671 544.812 530.999 545.483 530.999 546.312C530.999 547.14 531.671 547.812 532.499 547.812C533.328 547.812 533.999 547.14 533.999 546.312C533.999 545.483 533.328 544.812 532.499 544.812ZM529.999 549.312C529.999 549.036 530.223 548.812 530.499 548.812C530.775 548.812 530.999 549.036 530.999 549.312C530.999 549.588 530.775 549.812 530.499 549.812C530.223 549.812 529.999 549.588 529.999 549.312ZM528 542.812C528.552 542.812 529 542.364 529 541.812C529 541.259 528.552 540.812 528 540.812C527.448 540.812 527 541.259 527 541.812C527 542.364 527.448 542.812 528 542.812Z" fill="#201D25"/>
<circle cx="531" cy="535.812" r="1" fill="#201D25"/>
<path d="M535.665 541.936L533.358 532.875" stroke="#201D25"/>
<path d="M273.965 553.813C267.322 553.813 264 552.413 264 550.079C264 548.276 268.134 535.291 270.411 528.382C270.565 527.915 270.643 527.43 270.643 526.94V520.679C270.643 520.132 270.318 519.906 270.048 519.718C269.857 519.586 269.694 519.472 269.694 519.279C269.694 518.812 273.016 518.812 273.965 518.812C274.914 518.812 278.306 518.812 278.306 519.279C278.306 519.472 278.143 519.586 277.952 519.718C277.682 519.906 277.357 520.132 277.357 520.679V526.94C277.357 527.43 277.435 527.915 277.589 528.382C279.866 535.291 284 548.276 284 550.079C284 552.413 280.608 553.813 273.965 553.813Z" stroke="#201D25"/>
<path fill-rule="evenodd" clip-rule="evenodd" d="M273.971 551.92C268.74 551.92 266.125 550.501 266.125 549.435C266.125 548.395 267.406 543.313 268.803 538.102C270.446 537.861 272.19 537.73 273.998 537.73C275.806 537.73 277.551 537.861 279.194 538.103C280.591 543.314 281.872 548.395 281.872 549.435C281.872 550.501 279.201 551.92 273.971 551.92ZM276.499 544.812C275.671 544.812 274.999 545.483 274.999 546.312C274.999 547.14 275.671 547.812 276.499 547.812C277.328 547.812 277.999 547.14 277.999 546.312C277.999 545.483 277.328 544.812 276.499 544.812ZM273.999 549.312C273.999 549.036 274.223 548.812 274.499 548.812C274.775 548.812 274.999 549.036 274.999 549.312C274.999 549.588 274.775 549.812 274.499 549.812C274.223 549.812 273.999 549.588 273.999 549.312ZM272 542.812C272.552 542.812 273 542.364 273 541.812C273 541.259 272.552 540.812 272 540.812C271.448 540.812 271 541.259 271 541.812C271 542.364 271.448 542.812 272 542.812Z" fill="#201D25"/>
<circle cx="275" cy="535.812" r="1" fill="#201D25"/>
<path d="M279.665 541.936L277.358 532.875" stroke="#201D25"/>
<path d="M606.965 553.813C600.322 553.813 597 552.413 597 550.079C597 548.276 601.134 535.291 603.411 528.382C603.565 527.915 603.643 527.43 603.643 526.94V520.679C603.643 520.132 603.318 519.906 603.048 519.718C602.857 519.586 602.694 519.472 602.694 519.279C602.694 518.812 606.016 518.812 606.965 518.812C607.914 518.812 611.306 518.812 611.306 519.279C611.306 519.472 611.143 519.586 610.952 519.718C610.682 519.906 610.357 520.132 610.357 520.679V526.94C610.357 527.43 610.435 527.915 610.589 528.382C612.866 535.291 617 548.276 617 550.079C617 552.413 613.608 553.813 606.965 553.813Z" stroke="#201D25"/>
<path fill-rule="evenodd" clip-rule="evenodd" d="M606.971 551.92C601.74 551.92 599.125 550.501 599.125 549.435C599.125 548.395 600.406 543.313 601.803 538.102C603.446 537.861 605.19 537.73 606.998 537.73C608.806 537.73 610.551 537.861 612.194 538.103C613.591 543.314 614.872 548.395 614.872 549.435C614.872 550.501 612.201 551.92 606.971 551.92ZM609.499 544.812C608.671 544.812 607.999 545.483 607.999 546.312C607.999 547.14 608.671 547.812 609.499 547.812C610.328 547.812 610.999 547.14 610.999 546.312C610.999 545.483 610.328 544.812 609.499 544.812ZM606.999 549.312C606.999 549.036 607.223 548.812 607.499 548.812C607.775 548.812 607.999 549.036 607.999 549.312C607.999 549.588 607.775 549.812 607.499 549.812C607.223 549.812 606.999 549.588 606.999 549.312ZM605 542.812C605.552 542.812 606 542.364 606 541.812C606 541.259 605.552 540.812 605 540.812C604.448 540.812 604 541.259 604 541.812C604 542.364 604.448 542.812 605 542.812Z" fill="#201D25"/>
<circle cx="608" cy="535.812" r="1" fill="#201D25"/>
<path d="M612.665 541.936L610.358 532.875" stroke="#201D25"/>
<path d="M358.965 760C352.322 760 349 758.6 349 756.267C349 754.463 353.134 741.479 355.411 734.57C355.565 734.103 355.643 733.618 355.643 733.127V726.867C355.643 726.32 355.318 726.093 355.048 725.906C354.857 725.773 354.694 725.66 354.694 725.467C354.694 725 358.016 725 358.965 725C359.914 725 363.306 725 363.306 725.467C363.306 725.66 363.143 725.773 362.952 725.906C362.682 726.093 362.357 726.32 362.357 726.867V733.127C362.357 733.618 362.435 734.103 362.589 734.57C364.866 741.479 369 754.463 369 756.267C369 758.6 365.608 760 358.965 760Z" stroke="#201D25"/>
<path fill-rule="evenodd" clip-rule="evenodd" d="M358.971 758.107C353.74 758.107 351.125 756.688 351.125 755.622C351.125 754.583 352.406 749.501 353.803 744.29C355.446 744.048 357.19 743.918 358.998 743.918C360.806 743.918 362.551 744.048 364.194 744.29C365.591 749.501 366.872 754.583 366.872 755.622C366.872 756.688 364.201 758.107 358.971 758.107ZM361.499 750.999C360.671 750.999 359.999 751.671 359.999 752.499C359.999 753.328 360.671 753.999 361.499 753.999C362.328 753.999 362.999 753.328 362.999 752.499C362.999 751.671 362.328 750.999 361.499 750.999ZM358.999 755.499C358.999 755.223 359.223 754.999 359.499 754.999C359.775 754.999 359.999 755.223 359.999 755.499C359.999 755.775 359.775 755.999 359.499 755.999C359.223 755.999 358.999 755.775 358.999 755.499ZM357 748.999C357.552 748.999 358 748.552 358 747.999C358 747.447 357.552 746.999 357 746.999C356.448 746.999 356 747.447 356 747.999C356 748.552 356.448 748.999 357 748.999Z" fill="#201D25"/>
<circle cx="360" cy="742" r="1" fill="#201D25"/>
<path d="M364.665 748.123L362.358 739.062" stroke="#201D25"/>
<path fill-rule="evenodd" clip-rule="evenodd" d="M72.2257 389.172C73.7637 387.61 75.7154 386.457 77.9033 385.891L76.3242 379.812C73.0212 380.668 70.0746 382.409 67.7527 384.767L72.2257 389.172ZM69.1266 394.535L63.0738 392.864C62.6399 394.439 62.4082 396.098 62.4082 397.811C62.4082 399.526 62.6403 401.186 63.0748 402.763L69.1271 401.091C68.8394 400.047 68.6857 398.948 68.6857 397.812C68.6857 396.678 68.8392 395.578 69.1266 394.535ZM72.2264 406.453L67.7545 410.858C70.076 413.215 73.0218 414.955 76.3237 415.81L77.9024 409.734C75.7152 409.167 73.7641 408.015 72.2264 406.453ZM84.0977 409.734C86.2842 409.168 88.2348 408.015 89.7723 406.455L94.244 410.859C91.9227 413.215 88.9775 414.955 85.6763 415.81L84.0977 409.734ZM92.8728 401.093C93.1608 400.049 93.3147 398.949 93.3147 397.812C93.3147 396.677 93.1609 395.577 92.873 394.532L98.9254 392.861C99.3597 394.437 99.5917 396.097 99.5917 397.811C99.5917 399.526 99.3595 401.187 98.9247 402.764L92.8728 401.093ZM89.7727 389.17L94.2455 384.765C91.924 382.408 88.9783 380.668 85.6765 379.813L84.0974 385.891C86.2841 386.457 88.2351 387.609 89.7727 389.17Z" fill="#201D25"/>
<circle cx="81" cy="397.812" r="18.5" transform="rotate(-90 81 397.812)" stroke="#201D25"/>
<path d="M81 387.313C86.799 387.313 91.5 392.014 91.5 397.813C91.5 403.611 86.799 408.312 81 408.312C75.201 408.312 70.5 403.611 70.5 397.813C70.5 392.014 75.201 387.313 81 387.313Z" stroke="#201D25"/>
<path d="M81 385.313C87.9036 385.313 93.5 390.909 93.5 397.812C93.5 404.716 87.9036 410.312 81 410.312C74.0964 410.312 68.5 404.716 68.5 397.813C68.5 390.909 74.0964 385.313 81 385.313Z" stroke="#201D25"/>
<path d="M81 392.884L82.3917 395.522L82.5064 395.739L82.7486 395.781L85.6873 396.29L83.6087 398.428L83.4374 398.604L83.4724 398.848L83.8969 401.8L81.2206 400.484L81 400.375L80.7794 400.484L78.1031 401.8L78.5276 398.848L78.5626 398.604L78.3913 398.428L76.3127 396.29L79.2514 395.781L79.4936 395.739L79.6083 395.522L81 392.884Z" fill="#201D25" stroke="#201D25"/>
<path fill-rule="evenodd" clip-rule="evenodd" d="M227.226 389.172C228.764 387.61 230.715 386.457 232.903 385.891L231.324 379.812C228.021 380.668 225.075 382.409 222.753 384.767L227.226 389.172ZM224.127 394.535L218.074 392.864C217.64 394.439 217.408 396.098 217.408 397.811C217.408 399.526 217.64 401.186 218.075 402.763L224.127 401.091C223.839 400.047 223.686 398.948 223.686 397.812C223.686 396.678 223.839 395.578 224.127 394.535ZM227.226 406.453L222.754 410.858C225.076 413.215 228.022 414.955 231.324 415.81L232.902 409.734C230.715 409.167 228.764 408.015 227.226 406.453ZM239.098 409.734C241.284 409.168 243.235 408.015 244.772 406.455L249.244 410.859C246.923 413.215 243.978 414.955 240.676 415.81L239.098 409.734ZM247.873 401.093C248.161 400.049 248.315 398.949 248.315 397.812C248.315 396.677 248.161 395.577 247.873 394.532L253.925 392.861C254.36 394.437 254.592 396.097 254.592 397.811C254.592 399.526 254.359 401.187 253.925 402.764L247.873 401.093ZM244.773 389.17L249.245 384.765C246.924 382.408 243.978 380.668 240.676 379.813L239.097 385.891C241.284 386.457 243.235 387.609 244.773 389.17Z" fill="#201D25"/>
<circle cx="236" cy="397.812" r="18.5" transform="rotate(-90 236 397.812)" stroke="#201D25"/>
<path d="M236 387.313C241.799 387.313 246.5 392.014 246.5 397.813C246.5 403.611 241.799 408.312 236 408.312C230.201 408.312 225.5 403.611 225.5 397.813C225.5 392.014 230.201 387.313 236 387.313Z" stroke="#201D25"/>
<path d="M236 385.313C242.904 385.313 248.5 390.909 248.5 397.812C248.5 404.716 242.904 410.312 236 410.312C229.096 410.312 223.5 404.716 223.5 397.813C223.5 390.909 229.096 385.313 236 385.313Z" stroke="#201D25"/>
<path d="M236 392.884L237.392 395.522L237.506 395.739L237.749 395.781L240.687 396.29L238.609 398.428L238.437 398.604L238.472 398.848L238.897 401.8L236.221 400.484L236 400.375L235.779 400.484L233.103 401.8L233.528 398.848L233.563 398.604L233.391 398.428L231.313 396.29L234.251 395.781L234.494 395.739L234.608 395.522L236 392.884Z" fill="#201D25" stroke="#201D25"/>
<path fill-rule="evenodd" clip-rule="evenodd" d="M404.226 389.172C405.764 387.61 407.715 386.457 409.903 385.891L408.324 379.812C405.021 380.668 402.075 382.409 399.753 384.767L404.226 389.172ZM401.127 394.535L395.074 392.864C394.64 394.439 394.408 396.098 394.408 397.811C394.408 399.526 394.64 401.186 395.075 402.763L401.127 401.091C400.839 400.047 400.686 398.948 400.686 397.812C400.686 396.678 400.839 395.578 401.127 394.535ZM404.226 406.453L399.754 410.858C402.076 413.215 405.022 414.955 408.324 415.81L409.902 409.734C407.715 409.167 405.764 408.015 404.226 406.453ZM416.098 409.734C418.284 409.168 420.235 408.015 421.772 406.455L426.244 410.859C423.923 413.215 420.978 414.955 417.676 415.81L416.098 409.734ZM424.873 401.093C425.161 400.049 425.315 398.949 425.315 397.812C425.315 396.677 425.161 395.577 424.873 394.532L430.925 392.861C431.36 394.437 431.592 396.097 431.592 397.811C431.592 399.526 431.359 401.187 430.925 402.764L424.873 401.093ZM421.773 389.17L426.245 384.765C423.924 382.408 420.978 380.668 417.676 379.813L416.097 385.891C418.284 386.457 420.235 387.609 421.773 389.17Z" fill="#201D25"/>
<circle cx="413" cy="397.812" r="18.5" transform="rotate(-90 413 397.812)" stroke="#201D25"/>
<path d="M413 387.313C418.799 387.313 423.5 392.014 423.5 397.813C423.5 403.611 418.799 408.312 413 408.312C407.201 408.312 402.5 403.611 402.5 397.813C402.5 392.014 407.201 387.313 413 387.313Z" stroke="#201D25"/>
<path d="M413 385.313C419.904 385.313 425.5 390.909 425.5 397.812C425.5 404.716 419.904 410.312 413 410.312C406.096 410.312 400.5 404.716 400.5 397.813C400.5 390.909 406.096 385.313 413 385.313Z" stroke="#201D25"/>
<path d="M413 392.884L414.392 395.522L414.506 395.739L414.749 395.781L417.687 396.29L415.609 398.428L415.437 398.604L415.472 398.848L415.897 401.8L413.221 400.484L413 400.375L412.779 400.484L410.103 401.8L410.528 398.848L410.563 398.604L410.391 398.428L408.313 396.29L411.251 395.781L411.494 395.739L411.608 395.522L413 392.884Z" fill="#201D25" stroke="#201D25"/>
<path fill-rule="evenodd" clip-rule="evenodd" d="M561.226 389.172C562.764 387.61 564.715 386.457 566.903 385.891L565.324 379.812C562.021 380.668 559.075 382.409 556.753 384.767L561.226 389.172ZM558.127 394.535L552.074 392.864C551.64 394.439 551.408 396.098 551.408 397.811C551.408 399.526 551.64 401.186 552.075 402.763L558.127 401.091C557.839 400.047 557.686 398.948 557.686 397.812C557.686 396.678 557.839 395.578 558.127 394.535ZM561.226 406.453L556.754 410.858C559.076 413.215 562.022 414.955 565.324 415.81L566.902 409.734C564.715 409.167 562.764 408.015 561.226 406.453ZM573.098 409.734C575.284 409.168 577.235 408.015 578.772 406.455L583.244 410.859C580.923 413.215 577.978 414.955 574.676 415.81L573.098 409.734ZM581.873 401.093C582.161 400.049 582.315 398.949 582.315 397.812C582.315 396.677 582.161 395.577 581.873 394.532L587.925 392.861C588.36 394.437 588.592 396.097 588.592 397.811C588.592 399.526 588.359 401.187 587.925 402.764L581.873 401.093ZM578.773 389.17L583.245 384.765C580.924 382.408 577.978 380.668 574.676 379.813L573.097 385.891C575.284 386.457 577.235 387.609 578.773 389.17Z" fill="#201D25"/>
<circle cx="570" cy="397.812" r="18.5" transform="rotate(-90 570 397.812)" stroke="#201D25"/>
<path d="M570 387.313C575.799 387.313 580.5 392.014 580.5 397.813C580.5 403.611 575.799 408.312 570 408.312C564.201 408.312 559.5 403.611 559.5 397.813C559.5 392.014 564.201 387.313 570 387.313Z" stroke="#201D25"/>
<path d="M570 385.313C576.904 385.313 582.5 390.909 582.5 397.812C582.5 404.716 576.904 410.312 570 410.312C563.096 410.312 557.5 404.716 557.5 397.813C557.5 390.909 563.096 385.313 570 385.313Z" stroke="#201D25"/>
<path d="M570 392.884L571.392 395.522L571.506 395.739L571.749 395.781L574.687 396.29L572.609 398.428L572.437 398.604L572.472 398.848L572.897 401.8L570.221 400.484L570 400.375L569.779 400.484L567.103 401.8L567.528 398.848L567.563 398.604L567.391 398.428L565.313 396.29L568.251 395.781L568.494 395.739L568.608 395.522L570 392.884Z" fill="#201D25" stroke="#201D25"/>
<circle cx="162" cy="260.812" r="18.5" transform="rotate(180 162 260.812)" stroke="#201D25"/>
<path d="M149.5 260.813C149.5 253.909 155.096 248.312 162 248.312C168.904 248.312 174.5 253.909 174.5 260.812C174.5 267.716 168.904 273.313 162 273.313C155.096 273.313 149.5 267.716 149.5 260.813Z" stroke="#201D25"/>
<line x1="166.95" y1="255.863" x2="178.264" y2="244.55" stroke="#201D25"/>
<path fill-rule="evenodd" clip-rule="evenodd" d="M179 244.813L179 240.813L178 240.812L178 244.812L179 244.813Z" fill="#201D25"/>
<path fill-rule="evenodd" clip-rule="evenodd" d="M178 244.813L182 244.813L182 243.812L178 243.812L178 244.813Z" fill="#201D25"/>
<path fill-rule="evenodd" clip-rule="evenodd" d="M177 246.813L177 242.813L176 242.812L176 246.812L177 246.813Z" fill="#201D25"/>
<path fill-rule="evenodd" clip-rule="evenodd" d="M176 246.813L180 246.813L180 245.812L176 245.812L176 246.813Z" fill="#201D25"/>
<mask id="path-108-inside-1" fill="white">
<path fill-rule="evenodd" clip-rule="evenodd" d="M155 260.811C155 256.945 158.134 253.811 162 253.811C163.753 253.811 165.356 254.456 166.584 255.521L163.418 258.687L161.67 256.94L159.526 263.29L165.877 261.146L164.125 259.394L167.291 256.228C168.356 257.456 169 259.059 169 260.811C169 264.677 165.866 267.811 162 267.811C158.134 267.811 155 264.677 155 260.811Z"/>
</mask>
<path fill-rule="evenodd" clip-rule="evenodd" d="M155 260.811C155 256.945 158.134 253.811 162 253.811C163.753 253.811 165.356 254.456 166.584 255.521L163.418 258.687L161.67 256.94L159.526 263.29L165.877 261.146L164.125 259.394L167.291 256.228C168.356 257.456 169 259.059 169 260.811C169 264.677 165.866 267.811 162 267.811C158.134 267.811 155 264.677 155 260.811Z" fill="#201D25"/>
<path d="M162 253.811V252.811V253.811ZM155 260.811L154 260.811L154 260.811L155 260.811ZM166.584 255.521L167.291 256.228L168.05 255.469L167.239 254.766L166.584 255.521ZM163.418 258.687L162.711 259.394L163.418 260.101L164.125 259.394L163.418 258.687ZM161.67 256.94L162.378 256.233L161.238 255.093L160.723 256.62L161.67 256.94ZM159.526 263.29L158.579 262.97L157.933 264.884L159.846 264.238L159.526 263.29ZM165.877 261.146L166.197 262.094L167.723 261.578L166.584 260.439L165.877 261.146ZM164.125 259.394L163.418 258.687L162.711 259.394L163.418 260.101L164.125 259.394ZM167.291 256.228L168.047 255.573L167.343 254.762L166.584 255.521L167.291 256.228ZM169 260.811L170 260.811L170 260.811L169 260.811ZM162 267.811L162 268.811L162 267.811ZM162 252.811C157.582 252.811 154 256.393 154 260.811L156 260.811C156 257.498 158.686 254.811 162 254.811V252.811ZM167.239 254.766C165.836 253.549 164.003 252.811 162 252.811V254.811C163.503 254.811 164.876 255.363 165.929 256.276L167.239 254.766ZM164.125 259.394L167.291 256.228L165.877 254.814L162.711 257.98L164.125 259.394ZM164.125 257.98L162.378 256.233L160.963 257.647L162.711 259.394L164.125 257.98ZM160.723 256.62L158.579 262.97L160.474 263.61L162.618 257.26L160.723 256.62ZM159.846 264.238L166.197 262.094L165.557 260.199L159.206 262.343L159.846 264.238ZM166.584 260.439L164.832 258.687L163.418 260.101L165.17 261.853L166.584 260.439ZM166.584 255.521L163.418 258.687L164.832 260.101L167.998 256.935L166.584 255.521ZM170 260.811C170 258.809 169.263 256.976 168.047 255.573L166.535 256.883C167.449 257.936 168 259.308 168 260.811L170 260.811ZM162 268.811C166.418 268.811 170 265.23 170 260.811L168 260.811C168 264.125 165.314 266.811 162 266.811L162 268.811ZM154 260.811C154 265.23 157.582 268.811 162 268.811L162 266.811C158.686 266.811 156 264.125 156 260.811L154 260.811Z" fill="#201D25" mask="url(#path-108-inside-1)"/>
<circle cx="360" cy="662" r="18.5" transform="rotate(180 360 662)" stroke="#201D25"/>
<path d="M347.5 662C347.5 655.096 353.096 649.5 360 649.5C366.904 649.5 372.5 655.096 372.5 662C372.5 668.904 366.904 674.5 360 674.5C353.096 674.5 347.5 668.904 347.5 662Z" stroke="#201D25"/>
<line x1="364.95" y1="657.051" x2="376.264" y2="645.737" stroke="#201D25"/>
<path fill-rule="evenodd" clip-rule="evenodd" d="M377 646L377 642L376 642L376 646L377 646Z" fill="#201D25"/>
<path fill-rule="evenodd" clip-rule="evenodd" d="M376 646L380 646L380 645L376 645L376 646Z" fill="#201D25"/>
<path fill-rule="evenodd" clip-rule="evenodd" d="M375 648L375 644L374 644L374 648L375 648Z" fill="#201D25"/>
<path fill-rule="evenodd" clip-rule="evenodd" d="M374 648L378 648L378 647L374 647L374 648Z" fill="#201D25"/>
<mask id="path-117-inside-2" fill="white">
<path fill-rule="evenodd" clip-rule="evenodd" d="M353 661.999C353 658.133 356.134 654.999 360 654.999C361.753 654.999 363.356 655.643 364.584 656.708L361.418 659.875L359.67 658.127L357.526 664.478L363.877 662.334L362.125 660.582L365.291 657.416C366.356 658.644 367 660.246 367 661.999C367 665.865 363.866 668.999 360 668.999C356.134 668.999 353 665.865 353 661.999Z"/>
</mask>
<path fill-rule="evenodd" clip-rule="evenodd" d="M353 661.999C353 658.133 356.134 654.999 360 654.999C361.753 654.999 363.356 655.643 364.584 656.708L361.418 659.875L359.67 658.127L357.526 664.478L363.877 662.334L362.125 660.582L365.291 657.416C366.356 658.644 367 660.246 367 661.999C367 665.865 363.866 668.999 360 668.999C356.134 668.999 353 665.865 353 661.999Z" fill="#201D25"/>
<path d="M360 654.999V653.999V654.999ZM353 661.999L352 661.999L352 661.999L353 661.999ZM364.584 656.708L365.291 657.416L366.05 656.656L365.239 655.953L364.584 656.708ZM361.418 659.875L360.711 660.582L361.418 661.289L362.125 660.582L361.418 659.875ZM359.67 658.127L360.378 657.42L359.238 656.281L358.723 657.807L359.67 658.127ZM357.526 664.478L356.579 664.158L355.933 666.071L357.846 665.425L357.526 664.478ZM363.877 662.334L364.197 663.281L365.723 662.766L364.584 661.626L363.877 662.334ZM362.125 660.582L361.418 659.875L360.711 660.582L361.418 661.289L362.125 660.582ZM365.291 657.416L366.047 656.761L365.343 655.949L364.584 656.709L365.291 657.416ZM367 661.999L368 661.999L368 661.999L367 661.999ZM360 668.999L360 669.999L360 668.999ZM360 653.999C355.582 653.999 352 657.581 352 661.999L354 661.999C354 658.685 356.686 655.999 360 655.999V653.999ZM365.239 655.953C363.836 654.736 362.003 653.999 360 653.999V655.999C361.503 655.999 362.876 656.551 363.929 657.464L365.239 655.953ZM362.125 660.582L365.291 657.416L363.877 656.001L360.711 659.167L362.125 660.582ZM362.125 659.167L360.378 657.42L358.963 658.834L360.711 660.582L362.125 659.167ZM358.723 657.807L356.579 664.158L358.474 664.798L360.618 658.447L358.723 657.807ZM357.846 665.425L364.197 663.281L363.557 661.386L357.206 663.53L357.846 665.425ZM364.584 661.626L362.832 659.875L361.418 661.289L363.17 663.041L364.584 661.626ZM364.584 656.709L361.418 659.875L362.832 661.289L365.998 658.123L364.584 656.709ZM368 661.999C368 659.996 367.263 658.163 366.047 656.761L364.535 658.071C365.449 659.124 366 660.496 366 661.999L368 661.999ZM360 669.999C364.418 669.999 368 666.417 368 661.999L366 661.999C366 665.313 363.314 667.999 360 667.999L360 669.999ZM352 661.999C352 666.417 355.582 669.999 360 669.999L360 667.999C356.686 667.999 354 665.313 354 661.999L352 661.999Z" fill="#201D25" mask="url(#path-117-inside-2)"/>
<circle cx="497" cy="260.812" r="18.5" transform="rotate(180 497 260.812)" stroke="#201D25"/>
<path d="M484.5 260.813C484.5 253.909 490.096 248.312 497 248.312C503.904 248.312 509.5 253.909 509.5 260.812C509.5 267.716 503.904 273.313 497 273.313C490.096 273.313 484.5 267.716 484.5 260.813Z" stroke="#201D25"/>
<line x1="501.95" y1="255.863" x2="513.264" y2="244.55" stroke="#201D25"/>
<path fill-rule="evenodd" clip-rule="evenodd" d="M514 244.813L514 240.813L513 240.812L513 244.812L514 244.813Z" fill="#201D25"/>
<path fill-rule="evenodd" clip-rule="evenodd" d="M513 244.813L517 244.813L517 243.812L513 243.812L513 244.813Z" fill="#201D25"/>
<path fill-rule="evenodd" clip-rule="evenodd" d="M512 246.813L512 242.813L511 242.812L511 246.812L512 246.813Z" fill="#201D25"/>
<path fill-rule="evenodd" clip-rule="evenodd" d="M511 246.813L515 246.813L515 245.812L511 245.812L511 246.813Z" fill="#201D25"/>
<mask id="path-126-inside-3" fill="white">
<path fill-rule="evenodd" clip-rule="evenodd" d="M490 260.811C490 256.945 493.134 253.811 497 253.811C498.753 253.811 500.356 254.456 501.584 255.521L498.418 258.687L496.67 256.94L494.526 263.29L500.877 261.146L499.125 259.394L502.291 256.228C503.356 257.456 504 259.059 504 260.811C504 264.677 500.866 267.811 497 267.811C493.134 267.811 490 264.677 490 260.811Z"/>
</mask>
<path fill-rule="evenodd" clip-rule="evenodd" d="M490 260.811C490 256.945 493.134 253.811 497 253.811C498.753 253.811 500.356 254.456 501.584 255.521L498.418 258.687L496.67 256.94L494.526 263.29L500.877 261.146L499.125 259.394L502.291 256.228C503.356 257.456 504 259.059 504 260.811C504 264.677 500.866 267.811 497 267.811C493.134 267.811 490 264.677 490 260.811Z" fill="#201D25"/>
<path d="M497 253.811V252.811V253.811ZM490 260.811L489 260.811L489 260.811L490 260.811ZM501.584 255.521L502.291 256.228L503.05 255.469L502.239 254.766L501.584 255.521ZM498.418 258.687L497.711 259.394L498.418 260.101L499.125 259.394L498.418 258.687ZM496.67 256.94L497.378 256.233L496.238 255.093L495.723 256.62L496.67 256.94ZM494.526 263.29L493.579 262.97L492.933 264.884L494.846 264.238L494.526 263.29ZM500.877 261.146L501.197 262.094L502.723 261.578L501.584 260.439L500.877 261.146ZM499.125 259.394L498.418 258.687L497.711 259.394L498.418 260.101L499.125 259.394ZM502.291 256.228L503.047 255.573L502.343 254.762L501.584 255.521L502.291 256.228ZM504 260.811L505 260.811L505 260.811L504 260.811ZM497 267.811L497 268.811L497 267.811ZM497 252.811C492.582 252.811 489 256.393 489 260.811L491 260.811C491 257.498 493.686 254.811 497 254.811V252.811ZM502.239 254.766C500.836 253.549 499.003 252.811 497 252.811V254.811C498.503 254.811 499.876 255.363 500.929 256.276L502.239 254.766ZM499.125 259.394L502.291 256.228L500.877 254.814L497.711 257.98L499.125 259.394ZM499.125 257.98L497.378 256.233L495.963 257.647L497.711 259.394L499.125 257.98ZM495.723 256.62L493.579 262.97L495.474 263.61L497.618 257.26L495.723 256.62ZM494.846 264.238L501.197 262.094L500.557 260.199L494.206 262.343L494.846 264.238ZM501.584 260.439L499.832 258.687L498.418 260.101L500.17 261.853L501.584 260.439ZM501.584 255.521L498.418 258.687L499.832 260.101L502.998 256.935L501.584 255.521ZM505 260.811C505 258.809 504.263 256.976 503.047 255.573L501.535 256.883C502.449 257.936 503 259.308 503 260.811L505 260.811ZM497 268.811C501.418 268.811 505 265.23 505 260.811L503 260.811C503 264.125 500.314 266.811 497 266.811L497 268.811ZM489 260.811C489 265.23 492.582 268.811 497 268.811L497 266.811C493.686 266.811 491 264.125 491 260.811L489 260.811Z" fill="#201D25" mask="url(#path-126-inside-3)"/>
<circle cx="331" cy="122.812" r="18.5" stroke="#201D25"/>
<circle cx="331" cy="122.812" r="15.5" stroke="#201D25"/>
<circle cx="331" cy="122.812" r="7.5" stroke="#201D25"/>
<path fill-rule="evenodd" clip-rule="evenodd" d="M334 125.812L341 112.812L328 119.812L321 132.812L334 125.812ZM331 123.812C331.552 123.812 332 123.365 332 122.812C332 122.26 331.552 121.812 331 121.812C330.448 121.812 330 122.26 330 122.812C330 123.365 330.448 123.812 331 123.812Z" fill="#201D25"/>
<line x1="344" y1="122.812" x2="346" y2="122.812" stroke="#201D25"/>
<line x1="316" y1="122.812" x2="318" y2="122.812" stroke="#201D25"/>
<line x1="331.5" y1="136.313" x2="331.5" y2="138.312" stroke="#201D25"/>
<line x1="331.5" y1="107.313" x2="331.5" y2="109.312" stroke="#201D25"/>
<circle cx="133" cy="661" r="18.5" stroke="#201D25"/>
<circle cx="133" cy="661" r="15.5" stroke="#201D25"/>
<circle cx="133" cy="661" r="7.5" stroke="#201D25"/>
<path fill-rule="evenodd" clip-rule="evenodd" d="M136 664L143 651L130 658L123 671L136 664ZM133 662C133.552 662 134 661.552 134 661C134 660.448 133.552 660 133 660C132.448 660 132 660.448 132 661C132 661.552 132.448 662 133 662Z" fill="#201D25"/>
<line x1="146" y1="661" x2="148" y2="661" stroke="#201D25"/>
<line x1="118" y1="661" x2="120" y2="661" stroke="#201D25"/>
<line x1="133.5" y1="674.5" x2="133.5" y2="676.5" stroke="#201D25"/>
<line x1="133.5" y1="645.5" x2="133.5" y2="647.5" stroke="#201D25"/>
<line y1="840.5" x2="648" y2="840.5" stroke="black"/>
<line y1="0.5" x2="648" y2="0.5" stroke="black"/>
<path d="M398.232 748H406.872V746.512H399.864V742.496H406.04V741.136H399.864V737.536H406.696V736.096H398.232V748ZM411.82 748.256C413.836 748.256 415.276 747.36 415.276 745.616C415.276 743.616 413.804 743.232 412.092 742.896C410.636 742.608 409.804 742.432 409.804 741.536C409.804 740.88 410.3 740.336 411.468 740.336C412.7 740.336 413.308 740.832 413.436 741.712H414.924C414.732 740.224 413.66 739.216 411.5 739.216C409.5 739.216 408.348 740.144 408.348 741.616C408.348 743.504 409.868 743.856 411.548 744.208C413.068 744.512 413.788 744.752 413.788 745.696C413.788 746.464 413.212 747.056 411.852 747.056C410.62 747.056 409.66 746.64 409.484 745.392H407.98C408.108 747.136 409.452 748.256 411.82 748.256ZM416.883 750.912H418.371V748.304C418.371 747.648 418.355 747.168 418.339 746.864H418.387C418.979 747.776 419.923 748.256 421.091 748.256C423.411 748.256 424.835 746.48 424.835 743.728C424.835 740.896 423.331 739.2 421.139 739.2C419.907 739.2 419.043 739.776 418.403 740.752H418.355V739.408H416.883V750.912ZM420.931 747.024C419.027 747.024 418.291 745.568 418.291 743.76C418.291 741.936 419.123 740.464 420.947 740.464C422.531 740.464 423.315 741.872 423.315 743.76C423.315 745.632 422.515 747.024 420.931 747.024ZM430.143 748.24C432.127 748.24 433.503 747.152 433.887 745.552H432.431C432.159 746.464 431.343 747.024 430.159 747.024C428.495 747.024 427.583 745.744 427.471 744.064H434.063C434.063 742.608 433.711 741.376 433.007 740.528C432.335 739.696 431.343 739.2 430.063 739.2C427.599 739.2 425.951 741.216 425.951 743.712C425.951 746.224 427.503 748.24 430.143 748.24ZM430.063 740.352C431.551 740.352 432.399 741.344 432.479 742.992H427.503C427.695 741.472 428.511 740.352 430.063 740.352ZM437.121 739.408H435.649V748H437.137V743.328C437.137 741.712 438.273 740.72 439.601 740.72C439.857 740.72 440.001 740.736 440.209 740.8H440.257V739.392C440.097 739.328 439.953 739.296 439.713 739.296C438.577 739.296 437.697 739.968 437.169 740.96H437.121V739.408ZM441.68 737.824H443.232V736.096H441.68V737.824ZM441.712 748H443.2V739.408H441.712V748ZM445.243 748H446.731V742.704C446.731 741.392 447.835 740.448 448.859 740.448C449.739 740.448 450.331 741.072 450.331 742.128V748H451.803V742.704C451.803 741.392 452.747 740.448 453.835 740.448C454.699 740.448 455.387 741.072 455.387 742.128V748H456.875V742C456.875 740.208 455.787 739.2 454.219 739.2C453.179 739.2 452.171 739.728 451.563 740.8H451.531C451.179 739.744 450.347 739.2 449.307 739.2C448.203 739.2 447.291 739.76 446.763 740.688H446.715V739.408H445.243V748ZM462.596 748.24C464.58 748.24 465.956 747.152 466.34 745.552H464.884C464.612 746.464 463.796 747.024 462.612 747.024C460.948 747.024 460.036 745.744 459.924 744.064H466.516C466.516 742.608 466.164 741.376 465.46 740.528C464.788 739.696 463.796 739.2 462.516 739.2C460.052 739.2 458.404 741.216 458.404 743.712C458.404 746.224 459.956 748.24 462.596 748.24ZM462.516 740.352C464.004 740.352 464.852 741.344 464.932 742.992H459.956C460.148 741.472 460.964 740.352 462.516 740.352ZM469.574 739.408H468.102V748H469.59V742.768C469.59 741.392 470.55 740.448 471.878 740.448C473.046 740.448 473.766 741.072 473.766 742.176V748H475.238V742C475.238 740.208 474.134 739.2 472.342 739.2C471.094 739.2 470.246 739.76 469.622 740.624H469.574V739.408ZM476.559 740.56H477.903V746.32C477.903 747.584 478.703 748.048 479.855 748.064C480.239 748.064 480.655 748.016 481.055 747.92V746.672H481.007C480.847 746.72 480.511 746.784 480.255 746.784C479.711 746.784 479.375 746.608 479.375 745.984V740.56H481.151V739.408H479.375V736.704H477.903V739.408H476.559V740.56ZM486.362 748.24C488.954 748.24 490.538 746.224 490.538 743.712C490.538 741.216 488.954 739.2 486.362 739.2C483.77 739.2 482.154 741.216 482.154 743.712C482.154 746.224 483.77 748.24 486.362 748.24ZM486.346 747.024C484.586 747.024 483.674 745.568 483.674 743.712C483.674 741.856 484.586 740.384 486.346 740.384C488.106 740.384 489.018 741.856 489.018 743.712C489.018 745.568 488.106 747.024 486.346 747.024Z" fill="#201D25"/>
<path d="M398.608 668.256C402.192 668.256 404.448 665.6 404.448 662.048C404.448 658.48 402.192 655.84 398.608 655.84C395.008 655.84 392.784 658.48 392.784 662.048C392.784 665.6 395.008 668.256 398.608 668.256ZM398.608 666.816C395.904 666.816 394.448 664.768 394.448 662.048C394.448 659.312 395.904 657.248 398.608 657.248C401.312 657.248 402.752 659.312 402.752 662.048C402.752 664.768 401.312 666.816 398.608 666.816ZM410.451 668.256C412.771 668.256 414.163 666.496 414.163 663.728C414.163 660.896 412.675 659.2 410.499 659.2C409.251 659.2 408.291 659.856 407.731 660.768H407.683C407.699 660.4 407.731 659.792 407.731 659.136V656.096H406.243V668H407.715V666.784H407.763C408.323 667.744 409.299 668.256 410.451 668.256ZM410.291 667.024C408.531 667.024 407.651 665.616 407.651 663.744C407.651 661.92 408.483 660.448 410.307 660.448C411.875 660.448 412.643 661.856 412.643 663.744C412.643 665.632 411.875 667.024 410.291 667.024ZM415.711 657.824H417.263V656.096H415.711V657.824ZM415.743 668H417.231V659.408H415.743V668ZM423.002 668.24C424.986 668.24 426.362 667.152 426.746 665.552H425.29C425.018 666.464 424.202 667.024 423.018 667.024C421.354 667.024 420.442 665.744 420.33 664.064H426.922C426.922 662.608 426.57 661.376 425.866 660.528C425.194 659.696 424.202 659.2 422.922 659.2C420.458 659.2 418.81 661.216 418.81 663.712C418.81 666.224 420.362 668.24 423.002 668.24ZM422.922 660.352C424.41 660.352 425.258 661.344 425.338 662.992H420.362C420.554 661.472 421.37 660.352 422.922 660.352ZM427.824 660.56H429.168V666.32C429.168 667.584 429.968 668.048 431.12 668.064C431.504 668.064 431.92 668.016 432.32 667.92V666.672H432.272C432.112 666.72 431.776 666.784 431.52 666.784C430.976 666.784 430.64 666.608 430.64 665.984V660.56H432.416V659.408H430.64V656.704H429.168V659.408H427.824V660.56ZM433.199 660.56H434.543V666.32C434.543 667.584 435.343 668.048 436.495 668.064C436.879 668.064 437.295 668.016 437.695 667.92V666.672H437.647C437.487 666.72 437.151 666.784 436.895 666.784C436.351 666.784 436.015 666.608 436.015 665.984V660.56H437.791V659.408H436.015V656.704H434.543V659.408H433.199V660.56ZM439.305 657.824H440.857V656.096H439.305V657.824ZM439.337 668H440.825V659.408H439.337V668ZM444.916 668H446.564L449.652 659.408H448.116L446.58 664.048C446.196 665.2 445.828 666.784 445.828 666.784H445.796C445.796 666.784 445.38 665.2 445.012 664.048L443.508 659.408H441.924L444.916 668ZM454.346 668.24C456.938 668.24 458.522 666.224 458.522 663.712C458.522 661.216 456.938 659.2 454.346 659.2C451.754 659.2 450.138 661.216 450.138 663.712C450.138 666.224 451.754 668.24 454.346 668.24ZM454.33 667.024C452.57 667.024 451.658 665.568 451.658 663.712C451.658 661.856 452.57 660.384 454.33 660.384C456.09 660.384 457.002 661.856 457.002 663.712C457.002 665.568 456.09 667.024 454.33 667.024ZM467.648 668.256C469.664 668.256 471.104 667.36 471.104 665.616C471.104 663.616 469.632 663.232 467.92 662.896C466.464 662.608 465.632 662.432 465.632 661.536C465.632 660.88 466.128 660.336 467.296 660.336C468.528 660.336 469.136 660.832 469.264 661.712H470.752C470.56 660.224 469.488 659.216 467.328 659.216C465.328 659.216 464.176 660.144 464.176 661.616C464.176 663.504 465.696 663.856 467.376 664.208C468.896 664.512 469.616 664.752 469.616 665.696C469.616 666.464 469.04 667.056 467.68 667.056C466.448 667.056 465.488 666.64 465.312 665.392H463.808C463.936 667.136 465.28 668.256 467.648 668.256ZM472.027 660.56H473.371V666.32C473.371 667.584 474.171 668.048 475.323 668.064C475.707 668.064 476.123 668.016 476.523 667.92V666.672H476.475C476.315 666.72 475.979 666.784 475.723 666.784C475.179 666.784 474.843 666.608 474.843 665.984V660.56H476.619V659.408H474.843V656.704H473.371V659.408H472.027V660.56ZM479.637 659.408H478.165V668H479.653V663.328C479.653 661.712 480.789 660.72 482.117 660.72C482.373 660.72 482.517 660.736 482.725 660.8H482.773V659.392C482.613 659.328 482.469 659.296 482.229 659.296C481.093 659.296 480.213 659.968 479.685 660.96H479.637V659.408ZM486.475 668.176C487.931 668.176 488.811 667.488 489.355 666.736H489.371C489.531 667.648 489.979 668.08 490.891 668.08C491.243 668.08 491.483 668.016 491.691 667.952V666.912H491.627C490.875 667.072 490.715 666.704 490.715 666.016V662C490.715 660.848 490.283 660.096 489.563 659.664C489.019 659.344 488.299 659.2 487.483 659.2C485.163 659.2 484.059 660.496 483.995 661.952H485.435C485.483 660.928 486.139 660.288 487.499 660.288C488.683 660.288 489.339 660.864 489.339 661.792C489.339 662.672 488.523 662.88 487.259 663.024C485.035 663.296 483.563 663.728 483.563 665.728C483.563 667.376 484.843 668.176 486.475 668.176ZM486.843 667.088C485.979 667.088 485.131 666.816 485.131 665.712C485.131 664.528 486.059 664.272 487.467 664.032C488.171 663.904 488.923 663.696 489.355 663.424V664.832C489.355 665.824 488.555 667.088 486.843 667.088ZM492.215 660.56H493.559V666.32C493.559 667.584 494.359 668.048 495.511 668.064C495.895 668.064 496.311 668.016 496.711 667.92V666.672H496.663C496.503 666.72 496.167 666.784 495.911 666.784C495.367 666.784 495.031 666.608 495.031 665.984V660.56H496.807V659.408H495.031V656.704H493.559V659.408H492.215V660.56ZM502.002 668.24C503.986 668.24 505.362 667.152 505.746 665.552H504.29C504.018 666.464 503.202 667.024 502.018 667.024C500.354 667.024 499.442 665.744 499.33 664.064H505.922C505.922 662.608 505.57 661.376 504.866 660.528C504.194 659.696 503.202 659.2 501.922 659.2C499.458 659.2 497.81 661.216 497.81 663.712C497.81 666.224 499.362 668.24 502.002 668.24ZM501.922 660.352C503.41 660.352 504.258 661.344 504.338 662.992H499.362C499.554 661.472 500.37 660.352 501.922 660.352ZM511.14 671.008C512.292 671.008 513.252 670.752 513.924 670.192C514.58 669.632 514.964 668.784 514.964 667.648V659.408H513.492V660.544H513.46C512.916 659.68 512.084 659.2 510.852 659.2C508.836 659.2 507.172 660.768 507.172 663.408C507.172 665.904 508.74 667.616 510.932 667.616C512.148 667.616 512.9 667.088 513.492 666.24H513.524C513.508 666.512 513.492 666.976 513.492 667.472V667.712C513.492 669.168 512.644 669.856 511.108 669.856C509.828 669.856 508.964 669.488 508.836 668.592H507.444C507.604 670.112 508.884 671.008 511.14 671.008ZM511.076 666.4C509.524 666.4 508.692 665.248 508.692 663.424C508.692 661.616 509.492 660.432 511.06 660.432C512.772 660.432 513.588 661.536 513.588 663.344C513.588 665.088 512.948 666.4 511.076 666.4ZM516.992 657.824H518.544V656.096H516.992V657.824ZM517.024 668H518.512V659.408H517.024V668ZM524.283 668.24C526.459 668.24 527.819 667.008 528.011 664.96H526.539C526.427 666.24 525.627 667.024 524.283 667.024C522.523 667.024 521.611 665.568 521.611 663.712C521.611 661.856 522.523 660.4 524.283 660.4C525.531 660.4 526.299 661.088 526.507 662.208H527.995C527.691 660.368 526.347 659.2 524.283 659.2C521.707 659.2 520.091 661.216 520.091 663.712C520.091 666.224 521.707 668.24 524.283 668.24ZM533.252 668.24C535.844 668.24 537.428 666.224 537.428 663.712C537.428 661.216 535.844 659.2 533.252 659.2C530.66 659.2 529.044 661.216 529.044 663.712C529.044 666.224 530.66 668.24 533.252 668.24ZM533.236 667.024C531.476 667.024 530.564 665.568 530.564 663.712C530.564 661.856 531.476 660.384 533.236 660.384C534.996 660.384 535.908 661.856 535.908 663.712C535.908 665.568 534.996 667.024 533.236 667.024Z" fill="#201D25"/>
<path fill-rule="evenodd" clip-rule="evenodd" d="M123.226 732.36C124.764 730.798 126.715 729.645 128.903 729.078L127.324 723C124.021 723.856 121.075 725.596 118.753 727.954L123.226 732.36ZM120.127 737.722L114.074 736.051C113.64 737.626 113.408 739.286 113.408 740.999C113.408 742.713 113.64 744.374 114.075 745.95L120.127 744.279C119.839 743.235 119.686 742.135 119.686 741C119.686 739.865 119.839 738.766 120.127 737.722ZM123.226 749.641L118.754 754.045C121.076 756.402 124.022 758.142 127.324 758.998L128.902 752.921C126.715 752.355 124.764 751.202 123.226 749.641ZM135.098 752.922C137.284 752.355 139.235 751.203 140.772 749.643L145.244 754.047C142.923 756.403 139.978 758.142 136.676 758.998L135.098 752.922ZM143.873 744.281C144.161 743.236 144.315 742.136 144.315 741C144.315 739.864 144.161 738.764 143.873 737.72L149.925 736.049C150.36 737.625 150.592 739.285 150.592 740.999C150.592 742.714 150.359 744.375 149.925 745.952L143.873 744.281ZM140.773 732.358L145.245 727.952C142.924 725.596 139.978 723.856 136.676 723L135.097 729.078C137.284 729.645 139.235 730.797 140.773 732.358Z" fill="#201D25"/>
<circle cx="132" cy="741" r="18.5" transform="rotate(-90 132 741)" stroke="#201D25"/>
<path d="M132 730.5C137.799 730.5 142.5 735.201 142.5 741C142.5 746.799 137.799 751.5 132 751.5C126.201 751.5 121.5 746.799 121.5 741C121.5 735.201 126.201 730.5 132 730.5Z" stroke="#201D25"/>
<path d="M132 728.5C138.904 728.5 144.5 734.096 144.5 741C144.5 747.904 138.904 753.5 132 753.5C125.096 753.5 119.5 747.904 119.5 741C119.5 734.096 125.096 728.5 132 728.5Z" stroke="#201D25"/>
<path d="M132 736.071L133.392 738.709L133.506 738.927L133.749 738.969L136.687 739.477L134.609 741.616L134.437 741.792L134.472 742.035L134.897 744.987L132.221 743.671L132 743.563L131.779 743.671L129.103 744.987L129.528 742.035L129.563 741.792L129.391 741.616L127.313 739.477L130.251 738.969L130.494 738.927L130.608 738.709L132 736.071Z" fill="#201D25" stroke="#201D25"/>
<path d="M178.6 745.24C181.176 745.24 183.032 743.976 183.032 741.72C183.032 739.064 180.936 738.472 178.632 738.008C176.84 737.64 175.544 737.272 175.544 735.976C175.544 734.792 176.568 734.152 178.136 734.152C179.816 734.152 180.856 734.936 181.064 736.376H182.648C182.36 734.344 181.048 732.872 178.12 732.872C175.672 732.872 173.992 734.056 173.992 736.056C173.992 738.344 175.8 738.952 177.928 739.4C180.008 739.864 181.384 740.232 181.384 741.784C181.384 743.224 180.232 743.928 178.648 743.928C176.488 743.928 175.304 742.936 175.112 741.144H173.496C173.624 743.416 175.272 745.24 178.6 745.24ZM188.502 745.24C190.678 745.24 192.038 744.008 192.23 741.96H190.758C190.646 743.24 189.846 744.024 188.502 744.024C186.742 744.024 185.83 742.568 185.83 740.712C185.83 738.856 186.742 737.4 188.502 737.4C189.75 737.4 190.518 738.088 190.726 739.208H192.214C191.91 737.368 190.566 736.2 188.502 736.2C185.926 736.2 184.31 738.216 184.31 740.712C184.31 743.224 185.926 745.24 188.502 745.24ZM197.471 745.24C200.063 745.24 201.647 743.224 201.647 740.712C201.647 738.216 200.063 736.2 197.471 736.2C194.879 736.2 193.263 738.216 193.263 740.712C193.263 743.224 194.879 745.24 197.471 745.24ZM197.455 744.024C195.695 744.024 194.783 742.568 194.783 740.712C194.783 738.856 195.695 737.384 197.455 737.384C199.215 737.384 200.127 738.856 200.127 740.712C200.127 742.568 199.215 744.024 197.455 744.024ZM203.227 745H204.715V739.704C204.715 738.392 205.819 737.448 206.843 737.448C207.723 737.448 208.315 738.072 208.315 739.128V745H209.787V739.704C209.787 738.392 210.731 737.448 211.819 737.448C212.683 737.448 213.371 738.072 213.371 739.128V745H214.859V739C214.859 737.208 213.771 736.2 212.203 736.2C211.163 736.2 210.155 736.728 209.547 737.8H209.515C209.163 736.744 208.331 736.2 207.291 736.2C206.187 736.2 205.275 736.76 204.747 737.688H204.699V736.408H203.227V745ZM216.852 745H218.34V739.704C218.34 738.392 219.444 737.448 220.468 737.448C221.348 737.448 221.94 738.072 221.94 739.128V745H223.412V739.704C223.412 738.392 224.356 737.448 225.444 737.448C226.308 737.448 226.996 738.072 226.996 739.128V745H228.484V739C228.484 737.208 227.396 736.2 225.828 736.2C224.788 736.2 223.78 736.728 223.172 737.8H223.14C222.788 736.744 221.956 736.2 220.916 736.2C219.812 736.2 218.9 736.76 218.372 737.688H218.324V736.408H216.852V745ZM234.205 745.24C236.189 745.24 237.565 744.152 237.949 742.552H236.493C236.221 743.464 235.405 744.024 234.221 744.024C232.557 744.024 231.645 742.744 231.533 741.064H238.125C238.125 739.608 237.773 738.376 237.069 737.528C236.397 736.696 235.405 736.2 234.125 736.2C231.661 736.2 230.013 738.216 230.013 740.712C230.013 743.224 231.565 745.24 234.205 745.24ZM234.125 737.352C235.613 737.352 236.461 738.344 236.541 739.992H231.565C231.757 738.472 232.573 737.352 234.125 737.352ZM243.008 745.256C245.024 745.256 246.464 744.36 246.464 742.616C246.464 740.616 244.992 740.232 243.28 739.896C241.824 739.608 240.992 739.432 240.992 738.536C240.992 737.88 241.488 737.336 242.656 737.336C243.888 737.336 244.496 737.832 244.624 738.712H246.112C245.92 737.224 244.848 736.216 242.688 736.216C240.688 736.216 239.536 737.144 239.536 738.616C239.536 740.504 241.056 740.856 242.736 741.208C244.256 741.512 244.976 741.752 244.976 742.696C244.976 743.464 244.4 744.056 243.04 744.056C241.808 744.056 240.848 743.64 240.672 742.392H239.168C239.296 744.136 240.64 745.256 243.008 745.256ZM251.367 745.256C253.383 745.256 254.823 744.36 254.823 742.616C254.823 740.616 253.351 740.232 251.639 739.896C250.183 739.608 249.351 739.432 249.351 738.536C249.351 737.88 249.847 737.336 251.015 737.336C252.247 737.336 252.855 737.832 252.983 738.712H254.471C254.279 737.224 253.207 736.216 251.047 736.216C249.047 736.216 247.895 737.144 247.895 738.616C247.895 740.504 249.415 740.856 251.095 741.208C252.615 741.512 253.335 741.752 253.335 742.696C253.335 743.464 252.759 744.056 251.399 744.056C250.167 744.056 249.207 743.64 249.031 742.392H247.527C247.655 744.136 248.999 745.256 251.367 745.256ZM259.068 745.176C260.524 745.176 261.404 744.488 261.948 743.736H261.964C262.124 744.648 262.572 745.08 263.484 745.08C263.836 745.08 264.076 745.016 264.284 744.952V743.912H264.22C263.468 744.072 263.308 743.704 263.308 743.016V739C263.308 737.848 262.876 737.096 262.156 736.664C261.612 736.344 260.892 736.2 260.076 736.2C257.756 736.2 256.652 737.496 256.588 738.952H258.028C258.076 737.928 258.732 737.288 260.092 737.288C261.276 737.288 261.932 737.864 261.932 738.792C261.932 739.672 261.116 739.88 259.852 740.024C257.628 740.296 256.156 740.728 256.156 742.728C256.156 744.376 257.436 745.176 259.068 745.176ZM259.436 744.088C258.572 744.088 257.724 743.816 257.724 742.712C257.724 741.528 258.652 741.272 260.06 741.032C260.764 740.904 261.516 740.696 261.948 740.424V741.832C261.948 742.824 261.148 744.088 259.436 744.088Z" fill="#201D25"/>
<path d="M178.4 667H180.192L184.352 655.096H182.656L180.08 663.032C179.808 663.864 179.392 665.576 179.392 665.576H179.36C179.36 665.576 178.944 663.896 178.656 663.032L176.048 655.096H174.288L178.4 667ZM185.617 656.824H187.169V655.096H185.617V656.824ZM185.649 667H187.137V658.408H185.649V667ZM192.476 667.256C194.492 667.256 195.932 666.36 195.932 664.616C195.932 662.616 194.46 662.232 192.748 661.896C191.292 661.608 190.46 661.432 190.46 660.536C190.46 659.88 190.956 659.336 192.124 659.336C193.356 659.336 193.964 659.832 194.092 660.712H195.58C195.388 659.224 194.316 658.216 192.156 658.216C190.156 658.216 189.004 659.144 189.004 660.616C189.004 662.504 190.524 662.856 192.204 663.208C193.724 663.512 194.444 663.752 194.444 664.696C194.444 665.464 193.868 666.056 192.508 666.056C191.276 666.056 190.316 665.64 190.14 664.392H188.636C188.764 666.136 190.108 667.256 192.476 667.256ZM197.508 656.824H199.06V655.096H197.508V656.824ZM197.54 667H199.028V658.408H197.54V667ZM204.815 667.24C207.407 667.24 208.991 665.224 208.991 662.712C208.991 660.216 207.407 658.2 204.815 658.2C202.223 658.2 200.607 660.216 200.607 662.712C200.607 665.224 202.223 667.24 204.815 667.24ZM204.799 666.024C203.039 666.024 202.127 664.568 202.127 662.712C202.127 660.856 203.039 659.384 204.799 659.384C206.559 659.384 207.471 660.856 207.471 662.712C207.471 664.568 206.559 666.024 204.799 666.024ZM212.043 658.408H210.571V667H212.059V661.768C212.059 660.392 213.019 659.448 214.347 659.448C215.515 659.448 216.235 660.072 216.235 661.176V667H217.707V661C217.707 659.208 216.603 658.2 214.811 658.2C213.563 658.2 212.715 658.76 212.091 659.624H212.043V658.408ZM223.44 667.24C225.424 667.24 226.8 666.152 227.184 664.552H225.728C225.456 665.464 224.64 666.024 223.456 666.024C221.792 666.024 220.88 664.744 220.768 663.064H227.36C227.36 661.608 227.008 660.376 226.304 659.528C225.632 658.696 224.64 658.2 223.36 658.2C220.896 658.2 219.248 660.216 219.248 662.712C219.248 665.224 220.799 667.24 223.44 667.24ZM223.36 659.352C224.848 659.352 225.696 660.344 225.776 661.992H220.799C220.992 660.472 221.808 659.352 223.36 659.352Z" fill="#201D25"/>
</svg>