<svg width="24" height="24" viewBox="0 0 24 24" fill="none" xmlns="http://www.w3.org/2000/svg">
<mask id="path-1-inside-1" fill="white">
<path fill-rule="evenodd" clip-rule="evenodd" d="M12 24C18.6274 24 24 18.6274 24 12C24 5.37258 18.6274 0 12 0C5.37258 0 0 5.37258 0 12C0 18.6274 5.37258 24 12 24ZM12.0008 4.8669C11.9656 8.79119 8.79101 11.9657 4.86669 12.0008C8.79101 12.0358 11.9656 15.2104 12.0008 19.1347C12.0359 15.2103 15.2106 12.0358 19.135 12.0008C15.2106 11.9658 12.0359 8.79123 12.0008 4.8669Z"/>
</mask>
<path fill-rule="evenodd" clip-rule="evenodd" d="M12 24C18.6274 24 24 18.6274 24 12C24 5.37258 18.6274 0 12 0C5.37258 0 0 5.37258 0 12C0 18.6274 5.37258 24 12 24ZM12.0008 4.8669C11.9656 8.79119 8.79101 11.9657 4.86669 12.0008C8.79101 12.0358 11.9656 15.2104 12.0008 19.1347C12.0359 15.2103 15.2106 12.0358 19.135 12.0008C15.2106 11.9658 12.0359 8.79123 12.0008 4.8669Z" fill="#201D25"/>
<path d="M4.86669 12.0008L4.8533 10.5008L4.8533 13.5007L4.86669 12.0008ZM12.0008 4.8669L13.5007 4.85347L10.5008 4.85347L12.0008 4.8669ZM12.0008 19.1347L10.5008 19.1481L13.5007 19.1481L12.0008 19.1347ZM19.135 12.0008L19.1484 13.5007L19.1484 10.5008L19.135 12.0008ZM22.5 12C22.5 17.799 17.799 22.5 12 22.5V25.5C19.4558 25.5 25.5 19.4558 25.5 12H22.5ZM12 1.5C17.799 1.5 22.5 6.20101 22.5 12H25.5C25.5 4.54416 19.4558 -1.5 12 -1.5V1.5ZM1.5 12C1.5 6.20101 6.20101 1.5 12 1.5V-1.5C4.54416 -1.5 -1.5 4.54416 -1.5 12H1.5ZM12 22.5C6.20101 22.5 1.5 17.799 1.5 12H-1.5C-1.5 19.4558 4.54416 25.5 12 25.5V22.5ZM4.88008 13.5007C9.62234 13.4584 13.4583 9.62256 13.5007 4.88034L10.5008 4.85347C10.473 7.95982 7.95968 10.4731 4.8533 10.5008L4.88008 13.5007ZM13.5007 19.1212C13.4583 14.379 9.62234 10.5432 4.88008 10.5008L4.8533 13.5007C7.95968 13.5285 10.473 16.0417 10.5008 19.1481L13.5007 19.1212ZM19.1216 10.5008C14.3793 10.5431 10.5433 14.379 10.5008 19.1212L13.5007 19.1481C13.5285 16.0417 16.0419 13.5284 19.1484 13.5007L19.1216 10.5008ZM10.5008 4.88034C10.5433 9.62261 14.3793 13.4585 19.1216 13.5007L19.1484 10.5008C16.0419 10.4732 13.5285 7.95985 13.5007 4.85347L10.5008 4.88034Z" fill="#201D25" mask="url(#path-1-inside-1)"/>
</svg>
