<svg class="bg-pink" id="Livello_1" data-name="Livello 1" xmlns="http://www.w3.org/2000/svg" xmlns:xlink="http://www.w3.org/1999/xlink" viewBox="0 0 1200 700"><defs><style>.cls-1{fill:#fff;}.cls-2{opacity:0;}.cls-3{clip-path:url(#clip-path);}</style><clipPath id="clip-path"><rect class="cls-1" x="41.12" y="81.74" width="1117.77" height="536.53"/></clipPath></defs><g class="cls-2"><rect class="cls-1" x="41.12" y="81.74" width="1117.77" height="536.53"/><g class="cls-3"><path class="cls-1" d="M1157.4,461.34c-3-29.89-6-55.3-10.5-77.72l-13.51-1.49c12,62.77-1.5,115.08-39,159.91s-84,67.25-141,67.25c-90,0-144-52.3-144-130,0-71.73,63-119.56,153-143.47,48-14.94,79.52-26.9,114-47.82,33-22.42,52.51-52.31,52.51-91.17,0-44.83-24-77.71-60-94.15-37.51-16.44-75-22.42-118.53-22.42-15,0-30,1.49-45,3-21,3-37.51,9-58.52,19.43-4.5,3-10.5,6-15,10.46-16.5,11.95-33,31.38-46.51,62.77-4.5,9-7.5,17.93-12,29.89-3,7.47-6,16.44-9,25.4a86.18,86.18,0,0,1-7.5,20.93v3l-120,334.77L524.25,291c-28.51-86.68-69-134.5-108-162.9-27-19.43-52.51-29.89-75-34.37-3,0-4.5-1.5-6-1.5-28.51-7.47-58.51-10.46-88.52-10.46-45,0-82.52,7.48-118.53,22.42s-60,47.83-60,94.15c0,38.86,19.5,70.25,52.51,91.17,34.51,22.42,66,32.88,114,47.82,90,23.92,153,71.74,153,143.48,0,77.71-54,130-144,130-57,0-103.53-22.42-141-67.25s-49.52-97.15-39-159.92l-13.51,1.5c-4.5,22.42-7.5,47.82-10.5,77.71a283.44,283.44,0,0,0,0,62.77q15.75,31.38,54,53.8c25.51,15,51,25.41,75,29.89a629.24,629.24,0,0,0,72,9c58.51,0,108-14.94,150-46.33s61.52-71.73,61.52-119.56c-3-67.25-33-104.61-87-131.51-19.51-10.47-37.51-17.94-52.51-22.42-15-6-33-10.46-55.52-17.94-75-20.92-114-44.83-114-98.63,4.5-61.28,39-92.66,102-94.16,28.51,1.5,54,6,75,15h1.5c1.5,0,1.5,1.49,3,1.49,1.5,1.5,4.5,1.5,6,3,12,6,21,12,30,20.92l1.5,1.5a117.64,117.64,0,0,1,18,22.42c9,13.45,18,28.39,25.51,46.32a4.61,4.61,0,0,0,1.5,3c7.5,15,13.5,29.89,19.5,44.84,34.51,85.19,81,207.74,142.54,364.66h73.52L773.31,249.12l7.5-22.42c0-1.49,1.5-3,1.5-4.48,3-9,6-16.44,7.5-23.92,7.5-17.93,13.5-32.87,21-44.83,15-23.91,33-38.86,66-50.81h1.5c21-9,46.51-13.45,75-15,63,1.5,97.52,32.88,102,94.16,0,53.8-40.51,77.71-114,98.63-22.51,7.48-42,12-57,17.94-15,4.48-33,11.95-52.51,22.42-55.51,26.9-84,64.26-87,131.51,0,47.83,21,88.18,61.51,119.56,42,31.39,91.53,46.33,150,46.33q33.76,0,72-9c24-6,49.51-14.94,75-29.89s43.51-32.88,54-53.8C1158.9,510.66,1158.9,489.73,1157.4,461.34Z"/></g></g><path class="cls-1" d="M488.14,625.85H49.57c16.63-4.75,27.71-14.24,33.25-27.7q5.94-10.68,11.87-73.61V249.87c0-83.11-4-133-11.87-148.81C76.49,87.6,67,78.9,53.53,74.94H226.09c-11.87,3.16-20.58,7.12-26.91,12.66C184.14,99.48,177,153.3,177,249.87V520.58c.8,25.33,3.17,45.12,5.55,58.57,4.74,24.54,16.62,38,35.62,38.79,11.87.79,29.28.79,50.65.79,43.54,0,86.28-3.17,116.36-10.29,37.2-12.66,59.53-34,69.82-64.91h1.42Z"/><path class="cls-1" d="M731.38,219.79q5.6-16,10.68-29.21c-.47-17.11-1.29-31-2.29-42.33q-6.84,28.16-22.63,74.71a215.11,215.11,0,0,0-7.92,24.54L583.37,601.32,451.18,247.5c-26.12-63.33-40.37-111.61-43.54-145.65-.79-13.46,7.13-22.95,23.75-27.7h-171c21.37,5.54,34.82,13.45,38.78,24.53q39.18,81.93,209,527.17h77.57l136.94-383.1Z"/><path class="cls-1" d="M716.7,625.46c9.5-2.38,18.21-6.33,26.12-13.46C754.69,601.71,761,547.89,761,449.73V224.14c0-80.73-6.34-125.85-18.21-136.14-7.91-7.13-16.62-11.88-26.12-13.46h186c110.82,0,251.72,49.87,251.72,179.68,0,148.81-147.23,205-284.17,205-6.33,0-16.62-.79-31.66-1.58v17.41c0,80.74,5.54,126.65,16.62,136.94,8.71,7.13,18.21,11.88,26.91,13.46ZM838.6,446.57c11.08,2.37,22.95,3.16,35.62,3.16,53,0,99.73-15.83,138.52-46.7,38.78-31.66,58.57-76.78,58.57-135.35v-.79c0-73.62-23-123.48-66.49-148.81C961.29,92,912.21,82.46,839.39,82.46Z"/></svg>